<?xml version="1.0" encoding="UTF-8" standalone="no"?>
<!-- Generator: Adobe Illustrator 27.1.0, SVG Export Plug-In . SVG Version: 6.00 Build 0)  -->

<svg
   version="1.1"
   x="0px"
   y="0px"
   viewBox="0 0 3076.7381 937.65993"
   xml:space="preserve"
   id="svg862"
   width="3076.738"
   height="937.65997"
   xmlns="http://www.w3.org/2000/svg"
   xmlns:svg="http://www.w3.org/2000/svg"><defs
   id="defs862" />
<style
   type="text/css"
   id="style1">
	.st0{fill:#FFF042;}
	.st1{fill:#83D0F5;}
	.st2{fill:#E7E7E7;}
	.st3{fill:#FFFFFF;}
	.st4{fill:#EF7D00;}
	.st5{fill:#E94190;}
	.st6{fill:#6C4796;}
	.st7{fill:#878787;}
	.st8{fill-rule:evenodd;clip-rule:evenodd;fill:#878787;}
	.st9{fill:#153D8A;}
	.st10{fill:#F07E26;}
	.st11{fill-rule:evenodd;clip-rule:evenodd;fill:#F07E26;}
	.st12{fill-rule:evenodd;clip-rule:evenodd;fill:#153D8A;}
	.st13{fill-rule:evenodd;clip-rule:evenodd;fill:#008BCA;}
	.st14{fill:#008BCA;}
	.st15{opacity:0.2;}
	.st16{fill-rule:evenodd;clip-rule:evenodd;fill:#FFFFFF;}
	.st17{fill:#8FBF21;}
	.st18{fill:#FEC700;}
	.st19{fill:#E30613;}
	.st20{fill:#56AF31;}
	.st21{fill:#936037;}
	.st22{fill:#0080C8;}
	.st23{fill:#00B4EC;}
	.st24{fill:#CF0C63;}
	.st25{fill:#0F4496;}
	.st26{fill:none;}
	.st27{fill-rule:evenodd;clip-rule:evenodd;fill:#0BBBEF;}
	.st28{fill:#0BBBEF;}
	.st29{opacity:0.05;}
	.st30{fill:#E52082;}
</style>


<g
   id="Camada_6"
   transform="translate(231.52,132.57)">
	<g
   id="g215">
		<g
   id="g197">
			<g
   id="g196">
				<rect
   x="357.95001"
   y="330.06"
   class="st1"
   width="322.95999"
   height="37.630001"
   id="rect195" />
				<rect
   x="-231.52"
   y="330.06"
   class="st1"
   width="322.95999"
   height="37.630001"
   id="rect196" />
			</g>
		</g>
		<g
   id="g202">
			<g
   id="g201">
				<g
   id="g198">
					
						<rect
   x="271.63"
   y="121.65"
   transform="matrix(0.7071,-0.7071,0.7071,0.7071,27.5296,347.3935)"
   class="st1"
   width="322.95999"
   height="37.630001"
   id="rect197" />
					
						<rect
   x="-145.19"
   y="538.46997"
   transform="matrix(0.7071,-0.7071,0.7071,0.7071,-389.2906,174.7409)"
   class="st1"
   width="322.95999"
   height="37.630001"
   id="rect198" />
				</g>
				<g
   id="g200">
					
						<rect
   x="414.29001"
   y="395.81"
   transform="matrix(0.7071,-0.7071,0.7071,0.7071,-267.2068,469.4773)"
   class="st1"
   width="37.630001"
   height="322.95999"
   id="rect199" />
					
						<rect
   x="-2.53"
   y="-21.01"
   transform="matrix(0.7071,-0.7071,0.7071,0.7071,-94.5542,52.6571)"
   class="st1"
   width="37.630001"
   height="322.95999"
   id="rect200" />
				</g>
			</g>
		</g>
		<g
   id="g207">
			<g
   id="g206">
				<g
   id="g203">
					
						<rect
   x="345.23001"
   y="244.41"
   transform="matrix(0.9568,-0.2906,0.2906,0.9568,-54.6265,158.6232)"
   class="st1"
   width="322.95999"
   height="37.630001"
   id="rect202" />
					
						<rect
   x="-218.8"
   y="415.72"
   transform="matrix(0.9568,-0.2906,0.2906,0.9568,-128.7596,2.0973)"
   class="st1"
   width="322.95999"
   height="37.630001"
   id="rect203" />
				</g>
				<g
   id="g205">
					
						<rect
   x="291.54001"
   y="469.41"
   transform="matrix(0.9568,-0.2906,0.2906,0.9568,-169.956,117.4268)"
   class="st1"
   width="37.630001"
   height="322.95999"
   id="rect204" />
					
						<rect
   x="120.23"
   y="-94.620003"
   transform="matrix(0.9568,-0.2906,0.2906,0.9568,-13.4301,43.2937)"
   class="st1"
   width="37.630001"
   height="322.95999"
   id="rect205" />
				</g>
			</g>
		</g>
		<g
   id="g212">
			<g
   id="g211">
				<g
   id="g208">
					
						<rect
   x="185.53999"
   y="61.91"
   transform="matrix(0.415,-0.9098,0.9098,0.415,129.5606,362.9393)"
   class="st1"
   width="322.95999"
   height="37.630001"
   id="rect207" />
					
						<rect
   x="-59.099998"
   y="598.21997"
   transform="matrix(0.415,-0.9098,0.9098,0.415,-501.4966,454.1046)"
   class="st1"
   width="322.95999"
   height="37.630001"
   id="rect208" />
				</g>
				<g
   id="g210">
					
						<rect
   x="474.04001"
   y="309.72"
   transform="matrix(0.415,-0.9098,0.9098,0.415,-140.3854,724.0505)"
   class="st1"
   width="37.630001"
   height="322.95999"
   id="rect209" />
					
						<rect
   x="-62.27"
   y="65.080002"
   transform="matrix(0.415,-0.9098,0.9098,0.415,-231.5506,92.9933)"
   class="st1"
   width="37.630001"
   height="322.95999"
   id="rect210" />
				</g>
			</g>
		</g>
		<g
   id="g214">
			<g
   id="g213">
				<rect
   x="205.88"
   y="-107.34"
   class="st1"
   width="37.630001"
   height="322.95999"
   id="rect212" />
				<rect
   x="205.88"
   y="482.13"
   class="st1"
   width="37.630001"
   height="322.95999"
   id="rect213" />
			</g>
		</g>
	</g>
	<path
   class="st6"
   d="m 2072.82,431.82 c 75.92,206.5 304.87,312.36 511.38,236.44 206.51,-75.92 312.36,-304.87 236.44,-511.38 z"
   id="path215" />
	<rect
   x="601.20001"
   y="64.949997"
   class="st0"
   width="1529.14"
   height="421.70999"
   id="rect215" />
	<g
   id="g233">
		<path
   class="st9"
   d="m 1848.72,251.45 -1.25,-23.28 16.98,-0.91 -6.06,-112.95 -16.98,0.91 -1.24,-23.09 62.4,-3.35 1.24,23.09 -16.8,0.9 6.06,112.95 16.79,-0.9 1.25,23.28 z m -140.8,7.55 -1.25,-23.28 16.41,-0.88 -6.06,-112.95 -16.41,0.88 -1.24,-23.09 122.87,-6.59 2.55,47.51 -24.05,1.29 -1.31,-24.42 -53.61,2.88 2.34,43.7 20.8,-1.12 -1.18,-21.94 21.75,-1.17 3.48,64.87 -21.75,1.17 -1.14,-21.18 -20.8,1.12 2.55,47.51 53.61,-2.88 -1.55,-28.81 24.05,-1.29 2.8,52.09 z m -126.68,6.8 -1.25,-23.28 16.41,-0.88 -6.06,-112.95 -16.41,0.88 -1.24,-23.09 66.96,-3.59 1.24,23.09 -21.75,1.17 6.06,112.95 44.46,-2.39 -1.75,-32.62 24.61,-1.32 3,55.9 z m -123.13,-130.01 6.06,112.95 22.9,-1.23 c 14.51,-0.78 25.1,-6.51 32.2,-16.84 7.09,-10.52 10.17,-24.46 9.23,-41.83 -0.95,-17.74 -5.32,-31.47 -13.3,-41 -7.98,-9.71 -19.32,-14.08 -34.2,-13.28 z m -37.9,138.65 -1.25,-23.28 16.4,-0.88 -6.06,-112.95 -16.4,0.88 -1.24,-23.09 73.26,-3.93 c 15.45,-0.83 31.37,3.48 47.18,12.58 15.99,9.28 24.96,30.23 26.73,63.24 0.92,17.17 -1.35,31.83 -6.63,44.17 -5.27,12.34 -13.18,21.75 -23.73,28.44 -10.75,6.51 -23.56,10.26 -38.25,11.05 z"
   id="path216" />
		<path
   class="st9"
   d="m 1421.11,291.23 16.6,-0.89 c 3.82,-0.2 6.7,0.02 8.82,0.48 2.53,0.63 4.88,1.84 6.91,3.84 2.01,1.8 3.66,4.2 4.78,7.01 1.1,2.81 1.87,6.4 2.09,10.6 0.2,3.81 -0.2,7.09 -1,9.81 -0.79,3.29 -2.36,6.06 -4.35,8.27 -1.44,1.61 -3.48,2.87 -6.29,3.97 -1.87,0.68 -4.53,1.2 -7.96,1.38 l -17.17,0.92 z m 9.57,7.14 1.62,30.15 6.68,-0.36 c 2.67,-0.14 4.37,-0.43 5.5,-0.87 1.52,-0.27 2.81,-1.1 3.73,-1.92 0.91,-1.01 1.59,-2.57 2.05,-4.51 0.64,-2.14 0.69,-5.02 0.5,-8.45 -0.18,-3.44 -0.53,-6.09 -1.39,-7.96 -0.67,-1.88 -1.52,-3.36 -2.72,-4.25 -1.21,-1.09 -2.76,-1.58 -4.31,-1.88 -1.35,-0.31 -3.84,-0.37 -7.66,-0.17 z m 38.46,35.82 -2.44,-45.4 33.77,-1.81 0.41,7.63 -24.61,1.32 0.54,10.11 22.9,-1.23 0.41,7.64 -22.9,1.23 0.67,12.4 25.37,-1.36 0.41,7.63 z m 39.27,-17.03 8.73,-1.23 c 0.74,3.02 1.99,5.06 3.59,6.31 1.8,1.43 4.12,1.88 6.79,1.74 3.05,-0.16 5.12,-0.85 6.59,-2.08 1.45,-1.42 2.13,-2.98 2.05,-4.51 -0.06,-1.14 -0.49,-2.08 -1.1,-2.81 -0.61,-0.73 -1.79,-1.25 -3.35,-1.73 -1.17,-0.32 -3.68,-0.76 -7.54,-1.51 -4.84,-1.08 -8.55,-2.41 -10.54,-4.03 -2.81,-2.34 -4.49,-5.31 -4.69,-8.94 -0.12,-2.29 0.52,-4.43 1.75,-6.6 1.04,-1.97 2.86,-3.6 5.28,-4.87 2.43,-1.09 5.46,-1.83 8.89,-2.01 5.72,-0.31 9.99,0.81 12.98,3.13 3,2.33 4.7,5.49 5.12,9.68 l -9.14,0.87 c -0.5,-2.27 -1.35,-3.94 -2.74,-4.83 -1.39,-0.88 -3.33,-1.35 -5.99,-1.21 -2.49,0.13 -4.55,0.82 -6.03,1.85 -0.92,0.82 -1.44,1.8 -1.38,2.94 0.06,1.15 0.5,2.08 1.49,2.79 1.19,0.89 4.1,1.7 8.55,2.41 4.64,0.9 7.95,1.87 10.1,2.9 2.15,0.84 3.95,2.27 5.21,4.31 1.44,1.84 2.15,4.29 2.3,7.15 0.13,2.48 -0.5,5 -1.91,7.37 -1.21,2.36 -3.21,4.19 -5.83,5.29 -2.42,1.28 -5.82,2.04 -9.64,2.24 -5.72,0.31 -10.18,-0.79 -13.57,-3.3 -3.2,-2.48 -5.12,-6.2 -5.97,-11.32 z m 86.09,10.3 -9.92,0.53 -4.57,-10.09 -18.12,0.97 -3.07,10.5 -9.73,0.52 15.31,-46.36 9.54,-0.51 z m -17.76,-17.03 -7.19,-16.46 -5.2,17.12 z m 22.71,16.77 -2.44,-45.4 31.1,-1.67 0.41,7.63 -21.94,1.18 0.58,10.88 18.89,-1.01 0.41,7.63 -18.89,1.01 1.03,19.27 z m 38.35,-2.06 -2.44,-45.4 9.16,-0.49 2.44,45.4 z m 14.82,-23.38 c -0.25,-4.58 0.31,-8.43 1.47,-11.75 0.84,-2.34 2.26,-4.33 3.87,-6.32 1.62,-2.01 3.65,-3.45 5.7,-4.33 2.79,-1.49 6,-2.24 9.63,-2.43 6.68,-0.36 12.13,1.46 16.36,5.44 4.21,3.8 6.45,9.61 6.84,16.86 0.4,7.44 -1.21,13.27 -4.99,17.49 -3.78,4.41 -9.01,6.8 -15.49,7.15 -6.87,0.37 -12.32,-1.45 -16.56,-5.43 -4.23,-3.8 -6.44,-9.42 -6.83,-16.68 z m 9.33,-0.68 c 0.28,5.15 1.82,8.89 4.25,11.44 2.63,2.54 5.56,3.72 9.19,3.53 3.62,-0.19 6.61,-1.69 8.75,-4.49 2.34,-2.81 3.28,-6.68 2.99,-12.02 -0.28,-5.15 -1.62,-8.91 -4.06,-11.46 -2.42,-2.36 -5.54,-3.53 -9.36,-3.33 -3.63,0.19 -6.61,1.7 -8.76,4.3 -2.15,2.8 -3.28,6.69 -3,12.03 z m 60.75,19.5 -2.42,-45.03 9.16,-0.49 2.01,37.4 22.89,-1.23 0.41,7.63 z m 35.42,-24.48 c -0.25,-4.58 0.32,-8.43 1.48,-11.75 0.84,-2.34 2.26,-4.33 3.87,-6.32 1.61,-2 3.64,-3.45 5.7,-4.33 2.79,-1.49 6.01,-2.24 9.64,-2.43 6.67,-0.36 12.12,1.46 16.36,5.44 4.21,3.8 6.64,9.6 7.03,16.85 0.4,7.44 -1.4,13.28 -5.18,17.5 -3.79,4.41 -9.01,6.8 -15.5,7.15 -6.87,0.37 -12.33,-1.45 -16.56,-5.43 -4.23,-3.8 -6.45,-9.42 -6.84,-16.68 z m 9.34,-0.69 c 0.28,5.15 1.82,8.89 4.25,11.44 2.63,2.54 5.56,3.72 9.19,3.53 3.81,-0.2 6.6,-1.69 8.93,-4.5 2.14,-2.8 3.08,-6.67 2.8,-12.01 -0.28,-5.15 -1.63,-8.91 -4.06,-11.46 -2.42,-2.36 -5.54,-3.53 -9.35,-3.33 -3.63,0.19 -6.61,1.7 -8.77,4.3 -2.14,2.8 -3.28,6.7 -2.99,12.03 z m 40.57,-24.94 9.16,-0.49 1.32,24.61 c 0.2,3.81 0.35,6.49 0.6,7.62 0.47,1.7 1.51,3.17 3.1,4.23 1.58,1.07 3.53,1.54 6.2,1.39 2.48,-0.13 4.55,-0.82 5.63,-2.03 1.29,-1.02 2.17,-2.41 2.28,-3.95 0.11,-1.54 0.15,-4.22 -0.03,-7.65 l -1.35,-25.18 9.16,-0.49 1.28,23.85 c 0.3,5.53 0.3,9.36 -0.15,11.48 -0.26,2.31 -1.11,4.27 -2.37,5.87 -1.25,1.6 -3.09,3.03 -5.13,4.11 -2.25,0.88 -5.08,1.61 -8.71,1.81 -4.38,0.24 -7.66,-0.16 -9.81,-1.01 -2.33,-0.83 -4.12,-2.07 -5.55,-3.53 -1.42,-1.64 -2.47,-3.31 -2.94,-5.01 -0.71,-2.45 -1.1,-6.26 -1.38,-11.41 z m 48.23,42.95 -2.44,-45.4 19.27,-1.03 c 4.77,-0.26 8.41,-0.07 10.56,0.77 2.33,0.64 4.12,1.88 5.57,3.91 1.44,2.03 2.15,4.48 2.29,7.15 0.18,3.44 -0.62,6.16 -2.6,8.56 -1.79,2.39 -4.77,3.89 -8.74,4.68 2.16,1.03 3.76,2.28 5.17,3.55 1.41,1.26 3.26,3.65 5.54,6.97 l 6.01,8.67 -10.88,0.58 -7.21,-9.56 c -2.47,-3.31 -4.12,-5.52 -5.13,-6.42 -1.01,-0.9 -1.8,-1.43 -2.77,-1.77 -1.17,-0.32 -2.7,-0.24 -4.79,-0.13 l -1.72,0.09 1.01,18.89 z m 7.75,-26.63 6.68,-0.36 c 4.38,-0.24 7.24,-0.58 8.17,-1.01 1.13,-0.44 1.85,-1.24 2.57,-2.05 0.52,-0.99 0.84,-2.15 0.76,-3.49 -0.08,-1.53 -0.72,-2.83 -1.52,-3.55 -0.82,-0.91 -1.99,-1.42 -3.54,-1.73 -0.77,0.04 -2.87,-0.04 -6.69,0.17 l -7.06,0.38 z m 35.41,-21.22 16.79,-0.9 c 3.82,-0.21 6.7,0.02 8.64,0.49 2.72,0.62 5.08,1.83 7.1,3.83 2.01,1.8 3.48,4.21 4.58,7.02 1.3,2.8 1.88,6.4 2.1,10.6 0.2,3.81 0,7.08 -0.81,9.8 -0.97,3.3 -2.36,6.06 -4.53,8.28 -1.44,1.61 -3.48,2.87 -6.1,3.96 -2.07,0.69 -4.71,1.21 -8.15,1.39 l -17.18,0.92 z m 9.57,7.13 1.62,30.15 6.86,-0.37 c 2.49,-0.13 4.38,-0.43 5.5,-0.87 1.51,-0.27 2.62,-1.09 3.54,-1.91 0.9,-1.01 1.78,-2.59 2.24,-4.51 0.46,-2.13 0.7,-5.02 0.51,-8.45 -0.18,-3.44 -0.71,-6.08 -1.39,-7.96 -0.66,-1.88 -1.71,-3.35 -2.9,-4.24 -1.21,-1.09 -2.57,-1.59 -4.31,-1.88 -1.35,-0.31 -3.84,-0.37 -7.46,-0.18 z m 38.27,35.83 -2.44,-45.4 9.16,-0.49 2.44,45.4 z m 18.13,-0.97 -2.44,-45.4 8.78,-0.47 20.14,29.34 -1.63,-30.34 8.58,-0.46 2.44,45.4 -9.15,0.49 -19.91,-28.59 1.59,29.57 z m 86.42,-4.64 -9.92,0.53 -4.56,-10.09 -18.13,0.97 -3.07,10.5 -9.73,0.52 15.12,-46.34 9.72,-0.52 z m -17.75,-17.03 -7.19,-16.46 -5.2,17.12 z m 19.44,2.02 8.92,-1.24 c 0.73,3.02 1.8,5.07 3.59,6.31 1.8,1.43 3.93,1.89 6.79,1.74 2.86,-0.15 5.11,-0.85 6.58,-2.08 1.45,-1.42 1.94,-2.97 1.86,-4.5 -0.06,-1.14 -0.3,-2.09 -1.1,-2.81 -0.62,-0.73 -1.79,-1.25 -3.35,-1.73 -0.97,-0.33 -3.48,-0.77 -7.35,-1.52 -5.03,-1.07 -8.55,-2.41 -10.55,-4.02 -2.99,-2.33 -4.49,-5.31 -4.69,-8.94 -0.12,-2.29 0.34,-4.42 1.56,-6.59 1.23,-1.98 3.06,-3.61 5.48,-4.88 2.43,-1.09 5.26,-1.82 8.88,-2.01 5.54,-0.3 9.99,0.81 12.99,3.13 3,2.33 4.7,5.49 5.11,9.68 l -9.14,0.87 c -0.5,-2.27 -1.55,-3.93 -2.93,-4.82 -1.2,-0.89 -3.14,-1.36 -5.81,-1.22 -2.67,0.14 -4.74,0.83 -6.21,1.86 -0.91,0.81 -1.25,1.79 -1.19,2.93 0.06,1.15 0.5,2.08 1.49,2.79 1.2,0.89 4.11,1.7 8.55,2.41 4.45,0.91 7.94,1.87 10.1,2.9 2.15,0.84 3.95,2.27 5.21,4.31 1.25,1.85 1.96,4.3 2.11,7.16 0.13,2.48 -0.31,4.99 -1.71,7.36 -1.21,2.36 -3.22,4.19 -5.85,5.29 -2.6,1.29 -5.82,2.04 -9.82,2.25 -5.72,0.31 -10.18,-0.79 -13.39,-3.31 -3.17,-2.49 -5.28,-6.2 -6.13,-11.32 z m 60.56,-33.86 16.6,-0.89 c 3.81,-0.2 6.69,0.02 8.82,0.48 2.71,0.62 5.07,1.83 6.91,3.84 2.01,1.8 3.67,4.2 4.77,7.01 1.11,2.81 1.87,6.4 2.1,10.6 0.2,3.81 0,7.08 -0.81,9.8 -0.97,3.3 -2.55,6.07 -4.53,8.28 -1.45,1.61 -3.48,2.87 -6.1,3.96 -2.07,0.69 -4.72,1.21 -8.16,1.39 l -17.16,0.92 z m 9.56,7.13 1.62,30.15 6.88,-0.37 c 2.48,-0.13 4.37,-0.43 5.49,-0.87 1.32,-0.26 2.62,-1.09 3.53,-1.91 0.91,-1.01 1.59,-2.57 2.25,-4.52 0.46,-2.13 0.5,-5.01 0.31,-8.44 -0.18,-3.44 -0.52,-6.09 -1.19,-7.97 -0.87,-1.87 -1.71,-3.35 -2.91,-4.24 -1.2,-1.09 -2.57,-1.59 -4.31,-1.88 -1.35,-0.31 -3.84,-0.37 -7.66,-0.17 z m 38.66,35.81 -2.44,-45.4 33.58,-1.8 0.41,7.63 -24.41,1.31 0.54,10.11 22.7,-1.22 0.41,7.64 -22.7,1.22 0.67,12.4 25.18,-1.35 0.41,7.63 z"
   id="path217" />
		<path
   class="st9"
   d="m 1426.15,388.74 -1.69,-31.49 23.47,-1.26 0.29,5.34 -17.17,0.92 0.37,6.87 15.84,-0.85 0.29,5.34 -15.84,0.85 0.46,8.59 17.74,-0.95 0.29,5.35 z m 29.38,-1.57 -1.69,-31.49 9.54,-0.51 6.88,21.25 4.37,-21.86 9.55,-0.51 1.69,31.49 -5.92,0.32 -1.33,-24.81 -4.77,25.14 -6.3,0.34 -7.43,-24.48 1.33,24.81 z m 36.82,-1.98 -1.69,-31.49 10.11,-0.54 c 3.81,-0.2 6.5,-0.16 7.65,-0.03 1.75,0.48 3.33,1.35 4.75,3 1.23,1.47 1.92,3.53 2.05,6.02 0.1,1.9 -0.2,3.45 -0.7,4.81 -0.7,1.38 -1.59,2.58 -2.5,3.39 -1.11,0.82 -2.23,1.26 -3.37,1.52 -1.51,0.47 -3.6,0.77 -6.45,0.92 l -4.2,0.23 0.64,11.84 z m 4.89,-26.48 0.48,8.97 3.44,-0.18 c 2.48,-0.13 4.18,-0.41 5.11,-0.85 0.75,-0.42 1.3,-0.84 1.84,-1.63 0.33,-0.78 0.68,-1.57 0.63,-2.52 -0.06,-1.15 -0.5,-2.08 -1.31,-2.81 -0.61,-0.73 -1.59,-1.06 -2.55,-1.2 -0.77,-0.15 -2.3,-0.07 -4.58,0.05 z m 24.49,24.9 -1.69,-31.49 13.36,-0.72 c 3.43,-0.18 5.73,-0.12 7.29,0.38 1.56,0.49 2.95,1.56 3.98,2.85 0.85,1.49 1.5,2.98 1.6,4.89 0.13,2.49 -0.52,4.43 -1.78,6.03 -1.26,1.6 -3.31,2.67 -6.14,3.2 1.38,0.69 2.57,1.59 3.57,2.49 1,0.9 2.24,2.56 3.9,4.95 l 4.14,5.91 -7.63,0.41 -4.95,-6.63 c -1.66,-2.4 -2.88,-3.86 -3.48,-4.4 -0.79,-0.53 -1.4,-1.08 -1.99,-1.24 -0.77,-0.15 -1.92,-0.28 -3.26,-0.21 l -1.34,0.07 0.71,13.17 z m 5.33,-18.46 4.77,-0.26 c 3.06,-0.16 4.95,-0.46 5.7,-0.69 0.75,-0.43 1.3,-0.84 1.65,-1.43 0.34,-0.78 0.49,-1.55 0.44,-2.5 -0.05,-0.96 -0.3,-1.9 -0.9,-2.44 -0.6,-0.73 -1.39,-1.07 -2.55,-1.2 -0.38,0.02 -1.91,0.1 -4.58,0.25 l -4.96,0.27 z m 26.35,16.76 -1.69,-31.49 23.46,-1.26 0.29,5.34 -16.97,0.91 0.37,6.87 15.84,-0.85 0.29,5.34 -15.84,0.85 0.46,8.59 17.55,-0.94 0.29,5.35 z m 29.38,-1.57 -1.69,-31.49 23.46,-1.26 0.29,5.34 -16.98,0.91 0.37,6.87 15.83,-0.85 0.29,5.34 -15.83,0.85 0.46,8.59 17.56,-0.94 0.29,5.35 z m 29.57,-1.59 -1.69,-31.49 6.11,-0.33 14.1,20.29 -1.13,-20.99 5.92,-0.32 1.69,31.49 -6.49,0.35 -13.7,-19.93 1.11,20.61 z m 29.98,-33.19 11.64,-0.62 c 2.67,-0.14 4.59,-0.06 6.14,0.25 1.74,0.48 3.51,1.34 4.73,2.61 1.42,1.45 2.64,2.92 3.33,4.99 0.88,2.06 1.4,4.52 1.55,7.38 0.14,2.67 -0.13,4.79 -0.6,6.72 -0.83,2.35 -1.68,4.3 -3.13,5.72 -1.09,1.21 -2.56,2.24 -4.44,2.92 -1.31,0.45 -3.21,0.75 -5.5,0.87 l -12.02,0.65 z m 6.59,5.01 1.12,20.8 4.76,-0.26 c 1.91,-0.1 3.06,-0.16 4,-0.41 0.93,-0.44 1.67,-0.85 2.41,-1.47 0.73,-0.62 1.24,-1.79 1.55,-3.14 0.31,-1.36 0.39,-3.47 0.27,-5.76 -0.13,-2.47 -0.43,-4.38 -0.88,-5.69 -0.46,-1.32 -1.27,-2.23 -2.07,-2.95 -0.8,-0.72 -1.77,-1.05 -2.94,-1.37 -0.96,-0.14 -2.69,-0.05 -5.35,0.09 z m 26.96,24.77 -1.69,-31.49 23.47,-1.26 0.29,5.34 -17.17,0.92 0.37,6.87 15.84,-0.85 0.29,5.34 -15.84,0.85 0.46,8.59 17.74,-0.95 0.29,5.35 z m 27.7,-33.06 11.64,-0.62 c 2.67,-0.14 4.58,-0.06 5.94,0.26 1.95,0.47 3.52,1.34 4.93,2.6 1.41,1.46 2.44,2.93 3.32,4.99 0.88,2.06 1.2,4.53 1.35,7.39 0.14,2.67 0.07,4.78 -0.59,6.72 -0.64,2.34 -1.68,4.3 -2.95,5.71 -1.08,1.21 -2.55,2.24 -4.44,2.92 -1.32,0.45 -3.21,0.75 -5.5,0.87 l -12.02,0.64 z m 6.58,5 1.12,20.8 4.77,-0.26 c 1.72,-0.09 3.05,-0.16 3.81,-0.4 1.12,-0.45 1.86,-0.86 2.6,-1.48 0.55,-0.61 1.06,-1.78 1.56,-3.14 0.31,-1.36 0.39,-3.47 0.26,-5.76 -0.13,-2.47 -0.42,-4.38 -0.88,-5.69 -0.64,-1.31 -1.26,-2.23 -2.07,-2.95 -0.8,-0.72 -1.78,-1.05 -2.94,-1.37 -0.97,-0.14 -2.69,-0.05 -5.36,0.09 z m 24.8,9.39 c -0.17,-3.24 0.25,-5.95 1.09,-8.29 0.49,-1.56 1.36,-3.13 2.62,-4.54 1.08,-1.21 2.56,-2.24 3.86,-2.88 2.05,-1.07 4.32,-1.57 6.8,-1.71 4.57,-0.25 8.48,1.08 11.3,3.8 3.01,2.71 4.57,6.65 4.84,11.79 0.27,4.96 -0.86,9.04 -3.37,12.04 -2.71,3.02 -6.25,4.74 -11.02,4.99 -4.58,0.25 -8.48,-1.07 -11.29,-3.6 -3.01,-2.7 -4.56,-6.64 -4.83,-11.6 z m 6.47,-0.73 c 0.19,3.63 1.29,6.24 2.92,8.07 1.82,1.82 3.96,2.47 6.44,2.34 2.67,-0.14 4.73,-1.02 6.15,-3.01 1.63,-1.81 2.23,-4.71 2.04,-8.34 -0.19,-3.62 -1.1,-6.25 -2.91,-7.88 -1.63,-1.83 -3.76,-2.48 -6.44,-2.34 -2.48,0.13 -4.73,1.02 -6.16,3.01 -1.43,1.8 -2.23,4.52 -2.04,8.15 z m 30.04,14.27 -1.69,-31.49 13.36,-0.72 c 3.24,-0.17 5.73,-0.12 7.3,0.38 1.55,0.49 2.95,1.56 3.98,2.85 0.84,1.49 1.5,2.98 1.6,4.89 0.13,2.49 -0.53,4.43 -1.78,6.03 -1.26,1.6 -3.3,2.67 -6.14,3.2 1.38,0.69 2.58,1.59 3.58,2.49 1,0.9 2.24,2.56 3.9,4.95 l 4.14,5.91 -7.62,0.41 -4.96,-6.63 c -1.65,-2.4 -2.88,-3.86 -3.48,-4.4 -0.79,-0.53 -1.4,-1.08 -2.17,-1.23 -0.58,-0.16 -1.74,-0.29 -3.07,-0.22 l -1.34,0.07 0.71,13.17 z m 5.32,-18.46 4.77,-0.26 c 3.06,-0.16 4.95,-0.46 5.71,-0.69 0.74,-0.43 1.29,-0.83 1.65,-1.43 0.34,-0.78 0.49,-1.55 0.44,-2.5 -0.05,-0.96 -0.3,-1.9 -0.9,-2.44 -0.61,-0.73 -1.4,-1.07 -2.55,-1.2 -0.38,0.02 -1.91,0.1 -4.58,0.25 l -4.96,0.27 z m 26.16,16.77 -1.69,-31.49 6.49,-0.35 1.69,31.49 z m 10.32,-10.89 6.07,-0.9 c 0.5,2.07 1.35,3.56 2.54,4.46 1.2,0.89 2.75,1.38 4.66,1.28 2.1,-0.11 3.6,-0.57 4.7,-1.59 0.92,-0.81 1.42,-1.99 1.36,-3.13 -0.04,-0.76 -0.26,-1.32 -0.67,-1.88 -0.61,-0.54 -1.39,-0.88 -2.56,-1.2 -0.58,-0.16 -2.32,-0.64 -5.04,-1.06 -3.48,-0.77 -6.01,-1.59 -7.42,-2.86 -1.99,-1.61 -3.07,-3.66 -3.2,-6.14 -0.08,-1.52 0.22,-3.07 1.1,-4.46 0.87,-1.58 2.16,-2.6 3.84,-3.46 1.67,-0.85 3.75,-1.35 6.04,-1.48 4.01,-0.22 7.11,0.58 9.11,2.19 2.19,1.6 3.27,3.85 3.62,6.69 l -6.47,0.73 c -0.28,-1.71 -0.91,-2.82 -1.91,-3.53 -0.99,-0.52 -2.34,-0.83 -4.06,-0.74 -1.91,0.1 -3.22,0.55 -4.33,1.38 -0.55,0.42 -0.88,1.2 -0.84,1.96 0.04,0.76 0.25,1.33 1.05,1.86 0.79,0.52 2.75,1.19 5.84,1.79 3.28,0.59 5.61,1.24 6.99,1.93 1.57,0.68 2.77,1.76 3.79,3.04 0.84,1.29 1.31,2.99 1.41,4.9 0.1,1.91 -0.2,3.46 -1.25,5.23 -0.87,1.58 -2.14,2.8 -4.01,3.66 -1.68,0.86 -4.14,1.37 -6.8,1.51 -4.01,0.22 -7.11,-0.57 -9.3,-2.17 -2.21,-1.81 -3.69,-4.41 -4.26,-8.01 z m 31.46,8.65 -1.69,-31.49 9.55,-0.51 6.88,21.26 4.56,-21.87 9.55,-0.51 1.69,31.49 -5.92,0.32 -1.33,-24.81 -4.96,25.15 -6.11,0.33 -7.62,-24.47 1.33,24.81 z m 34.65,-17.36 c -0.17,-3.24 0.26,-5.95 1.09,-8.29 0.49,-1.56 1.36,-3.13 2.62,-4.54 1.09,-1.21 2.56,-2.24 3.86,-2.88 2.05,-1.07 4.32,-1.57 6.8,-1.71 4.58,-0.25 8.48,1.08 11.31,3.8 3.02,2.71 4.57,6.65 4.84,11.79 0.27,4.96 -0.85,9.04 -3.37,12.04 -2.71,3.02 -6.25,4.74 -11.02,4.99 -4.58,0.25 -8.47,-1.07 -11.29,-3.6 -3.02,-2.7 -4.57,-6.64 -4.84,-11.6 z m 6.47,-0.73 c 0.19,3.63 1.3,6.24 2.93,8.07 1.82,1.82 3.96,2.47 6.44,2.34 2.67,-0.14 4.73,-1.02 6.16,-3.01 1.63,-1.81 2.24,-4.71 2.04,-8.34 -0.19,-3.62 -1.09,-6.25 -2.91,-7.88 -1.63,-1.83 -3.77,-2.48 -6.44,-2.34 -2.48,0.13 -4.72,1.02 -6.15,3.01 -1.45,1.8 -2.26,4.52 -2.07,8.15 z m 42.26,13.61 -1.69,-31.49 23.28,-1.25 0.29,5.34 -16.98,0.91 0.37,6.87 15.84,-0.85 0.29,5.34 -15.84,0.85 0.46,8.59 17.55,-0.94 0.29,5.35 z m 41.4,-2.22 -1.69,-31.49 6.3,-0.34 1.69,31.49 z m 12.4,-0.66 -1.69,-31.49 6.3,-0.34 13.91,20.3 -1.13,-20.99 5.91,-0.32 1.69,31.49 -6.29,0.34 -13.89,-19.92 1.11,20.61 z m 29.7,-17.1 c -0.17,-3.24 0.26,-5.95 1.09,-8.29 0.49,-1.56 1.37,-3.13 2.63,-4.54 1.08,-1.21 2.56,-2.24 3.86,-2.88 2.05,-1.07 4.13,-1.56 6.8,-1.71 4.58,-0.25 8.47,1.08 11.3,3.8 3.02,2.71 4.57,6.65 4.85,11.79 0.27,4.96 -0.85,9.04 -3.37,12.04 -2.71,3.02 -6.25,4.74 -11.02,4.99 -4.58,0.25 -8.47,-1.07 -11.29,-3.6 -3.04,-2.7 -4.59,-6.64 -4.85,-11.6 z m 6.47,-0.73 c 0.19,3.63 1.29,6.24 2.92,8.07 1.82,1.82 3.97,2.47 6.44,2.34 2.67,-0.14 4.73,-1.02 6.15,-3.01 1.63,-1.81 2.23,-4.71 2.04,-8.34 -0.19,-3.62 -1.1,-6.25 -2.91,-7.88 -1.63,-1.83 -3.77,-2.48 -6.44,-2.34 -2.47,0.13 -4.72,1.02 -6.16,3.01 -1.43,1.81 -2.24,4.53 -2.04,8.15 z m 38.04,13.85 -13.13,-30.88 7.06,-0.38 9.26,22.85 6.39,-23.69 6.68,-0.36 -9.57,32.09 z m 46.37,-2.49 -6.87,0.37 -3.05,-6.92 -12.59,0.68 -2.29,7.21 -6.68,0.36 10.52,-32.14 6.67,-0.36 z m -12.31,-11.79 -5.02,-11.59 -3.56,12.05 z m 35.34,-1.13 6.22,1.77 c -0.78,3.48 -2.17,6.05 -4.37,7.89 -2,1.82 -4.83,2.74 -8.06,2.91 -4.2,0.23 -7.72,-1.11 -10.72,-3.63 -2.82,-2.72 -4.37,-6.66 -4.64,-11.62 -0.29,-5.34 0.83,-9.42 3.54,-12.44 2.52,-3.01 5.87,-4.72 10.45,-4.96 3.82,-0.2 6.93,0.78 9.53,2.94 1.41,1.27 2.66,3.12 3.56,5.55 l -6.21,1.87 c -0.47,-1.51 -1.31,-2.8 -2.49,-3.69 -1.39,-0.89 -2.75,-1.2 -4.46,-1.1 -2.29,0.12 -4.16,0.99 -5.59,2.79 -1.44,1.8 -1.87,4.5 -1.66,8.32 0.2,3.82 0.93,6.65 2.55,8.28 1.43,1.65 3.37,2.31 5.66,2.19 1.72,-0.09 3.22,-0.56 4.31,-1.76 1.26,-1.23 1.94,-2.8 2.38,-5.31 z m -12.25,21.14 -0.14,-2.67 c 1.53,0.11 2.88,0.23 4.02,0.17 1.34,-0.07 2.27,-0.5 2.82,-0.91 0.36,-0.41 0.72,-0.81 0.69,-1.38 -0.03,-0.57 -0.43,-0.94 -0.83,-1.29 -0.4,-0.36 -1.17,-0.32 -2.12,-0.27 -0.77,0.04 -1.72,0.09 -2.65,0.53 l 0.45,-2.13 c 0.94,-0.44 2.27,-0.7 3.41,-0.76 1.91,-0.1 3.26,0.21 4.26,0.92 0.99,0.71 1.43,1.65 1.49,2.79 0.06,1.14 -0.26,2.31 -1.36,3.13 -1.27,1.21 -3.35,1.71 -5.83,1.84 -1.91,0.09 -3.25,0.16 -4.21,0.03 z m 52.95,-11.64 -6.87,0.37 -3.25,-6.91 -12.59,0.68 -2.1,7.2 -6.87,0.37 10.52,-32.14 6.87,-0.37 z m -12.31,-11.79 -5.02,-11.59 -3.75,12.06 z m -10.46,-20.29 -2.86,0.15 c -0.02,-0.38 -0.03,-0.57 -0.04,-0.76 -0.08,-1.53 0.23,-2.7 0.95,-3.69 0.72,-0.81 1.65,-1.24 2.8,-1.3 0.38,-0.02 0.95,-0.05 1.35,0.11 0.38,-0.02 1.36,0.31 2.53,0.83 1.17,0.31 1.95,0.66 2.72,0.62 0.38,-0.02 0.75,-0.24 1.13,-0.45 0.17,-0.39 0.32,-0.97 0.49,-1.55 l 2.67,-0.14 c 0.1,1.91 -0.2,3.26 -0.72,4.25 -0.72,0.8 -1.66,1.23 -2.8,1.29 -0.39,0.02 -0.96,0.05 -1.35,-0.12 -0.38,0.02 -1.15,-0.13 -2.52,-0.63 -1.37,-0.5 -2.33,-0.64 -2.9,-0.61 -0.57,0.03 -0.95,0.24 -1.12,0.45 -0.2,0.4 -0.38,0.79 -0.33,1.55 z m 24.03,16.51 c -0.17,-3.24 0.07,-5.94 0.9,-8.28 0.68,-1.57 1.56,-3.14 2.82,-4.55 1.09,-1.21 2.37,-2.23 3.87,-2.88 2.05,-1.07 4.13,-1.56 6.79,-1.71 4.58,-0.25 8.48,1.08 11.3,3.8 3.01,2.71 4.57,6.65 4.85,11.79 0.27,4.96 -0.86,9.04 -3.57,12.05 -2.52,3.01 -6.06,4.73 -10.83,4.98 -4.58,0.25 -8.47,-1.07 -11.29,-3.6 -3.02,-2.7 -4.58,-6.64 -4.84,-11.6 z m 6.47,-0.73 c 0.19,3.63 1.3,6.24 2.92,8.07 1.82,1.82 3.96,2.47 6.44,2.34 2.48,-0.13 4.54,-1.01 6.16,-3.01 1.43,-1.8 2.24,-4.71 2.04,-8.34 -0.19,-3.62 -1.1,-6.25 -2.91,-7.88 -1.63,-1.83 -3.77,-2.48 -6.44,-2.34 -2.67,0.14 -4.73,1.02 -6.15,3.01 -1.44,1.8 -2.26,4.52 -2.06,8.15 z"
   id="path218" />
		<path
   class="st10"
   d="m 1320.75,228.88 c 0.42,7.83 5.03,11.6 13.61,11.14 8.97,-0.48 13.14,-4.72 12.72,-12.55 l -4.06,-75.74 c -0.37,-6.87 -4.94,-10.06 -13.9,-9.58 -8.58,0.46 -12.79,4.13 -12.42,11 z m -36.44,-72.86 c -0.61,-11.44 3.48,-20.66 12.5,-27.46 8.28,-6.18 19.19,-9.64 32.55,-10.36 12.59,-0.68 23.26,2 32,8.04 8.95,6.22 13.61,14.77 14.19,25.65 l 3.84,71.55 c 0.66,12.21 -3.03,21.78 -10.88,28.9 -7.86,6.93 -18.75,10.76 -32.87,11.52 -13.74,0.74 -24.98,-1.91 -33.55,-8.34 -8.57,-6.42 -13.28,-15.55 -13.92,-27.57 z"
   id="path219" />
		
			<rect
   x="1291.0601"
   y="276.04999"
   transform="matrix(0.9986,-0.0536,0.0536,0.9986,-13.4913,72.0537)"
   class="st11"
   width="91.699997"
   height="23.120001"
   id="rect219" />
		<path
   class="st12"
   d="m 880.73,440.4 -55.91,2.8 -18.84,-22.91 c -9.85,-12.48 -5.52,-6.59 -7.58,-20.06 -2.96,-19.55 -6.37,-26.07 -14.97,-40.15 -31.33,-23.96 -52.44,-60.9 -54.71,-103.06 -2.07,-38.54 11.89,-74.31 35.91,-100.86 5.97,0.64 15.07,2.64 20.62,6.36 -24.56,23.51 -39.03,57.01 -37.08,93.45 1.82,33.96 17.59,63.93 41.66,84.64 9.23,7.92 9.36,10.4 15.49,21.17 l 0.22,0.56 0.2,0.18 0.2,0.19 v 0 l 0.01,0.19 0.21,0.38 v 0 l 0.01,0.19 0.2,0.18 v 0 l 0.01,0.19 0.21,0.37 v 0 l 0.2,0.18 0.01,0.19 v 0 l 0.2,0.19 0.02,0.38 v 0 l 0.2,0.18 0.01,0.2 v 0 l 0.2,0.18 0.02,0.38 v 0 l 0.21,0.19 0.01,0.19 v 0 l 0.2,0.18 0.02,0.39 v 0 l 0.2,0.18 0.01,0.19 v 0 l 0.2,0.19 0.02,0.38 v 0 l 0.2,0.18 0.01,0.19 v 0 l 0.2,0.18 0.02,0.38 v 0 l 0.21,0.19 0.01,0.19 v 0 l 0.21,0.37 0.01,0.2 v 0 l 0.2,0.18 0.01,0.19 0.01,0.19 0.01,0.19 0.21,0.18 v 0 l 0.01,0.19 0.21,0.37 v 0 0 l 0.21,0.37 v 0 l 0.01,0.2 0.21,0.37 v 0 l 0.01,0.19 0.01,0.2 v 0 l 0.01,0.19 0.22,0.37 v 0 l 0.2,0.18 0.02,0.38 v 0 l 0.01,0.2 0.2,0.18 v 0 l 0.02,0.38 0.2,0.19 v 0 l 0.01,0.19 0.02,0.38 v 0 l 0.21,0.19 0.01,0.19 0.01,0.19 0.21,0.37 v 0 l 0.02,0.38 0.2,0.18 v 0 l 0.03,0.57 c 1.83,5.64 3.33,12.07 4.53,20.23 0.33,2.66 0.65,5.13 0.78,7.61 0.84,1.3 1.86,2.58 2.88,3.67 l 13.09,15.56 46.57,-2.12 46.72,-2.89 11.35,-16.87 c 0.7,-1.18 1.58,-2.57 2.46,-3.96 -0.13,-2.47 -0.27,-4.96 -0.03,-7.65 0.33,-8.25 0.93,-14.79 2.15,-20.59 l 0.17,-0.58 v 0 l -0.01,-0.19 0.17,-0.39 v 0 l -0.02,-0.38 -0.01,-0.19 0.18,-0.2 -0.01,-0.2 v 0 l 0.17,-0.39 -0.01,-0.19 v 0 l -0.01,-0.2 0.17,-0.39 v 0 l -0.01,-0.19 -0.01,-0.2 0.19,-0.01 -0.02,-0.38 -0.01,-0.19 v 0 l 0.17,-0.39 -0.01,-0.19 v 0 l 0.19,-0.21 -0.01,-0.19 v 0 l -0.02,-0.38 0.17,-0.21 v 0 l 0.18,-0.39 v 0 0 l -0.02,-0.38 0.18,-0.2 v 0 l -0.01,-0.19 -0.01,-0.19 0.19,-0.2 -0.01,-0.19 -0.01,-0.19 v 0 l 0.18,-0.21 -0.02,-0.38 v 0 l 0.18,-0.2 -0.01,-0.2 v 0 l 0.17,-0.39 -0.01,-0.19 v 0 l 0.18,-0.2 -0.01,-0.19 v 0 l 0.17,-0.39 -0.01,-0.2 v 0 l 0.18,-0.2 -0.01,-0.19 v 0 l 0.17,-0.4 -0.01,-0.19 v 0 l 0.18,-0.2 -0.01,-0.2 v 0 l 0.17,-0.39 -0.01,-0.19 v 0 l 0.18,-0.21 -0.01,-0.19 v 0 l 0.17,-0.39 -0.01,-0.2 v 0 l 0.18,-0.2 -0.01,-0.19 v 0 l 0.18,-0.4 0.18,-0.2 v 0 l -0.01,-0.19 0.18,-0.2 v 0 l -0.02,-0.39 0.18,-0.2 v 0 l -0.01,-0.2 0.18,-0.2 0.16,-0.58 c 4.94,-11.36 4.81,-13.84 13.32,-22.71 1.27,-1.41 2.53,-2.82 3.78,-4.42 2.34,0.64 4.8,0.13 7.46,-0.01 l 0.19,-0.01 18.42,-2.71 c -6.01,9.31 -13.19,18.12 -21.39,25.83 -7.23,14.93 -9.74,21.77 -10.59,41.52 -0.61,13.62 2.88,7.3 -5.39,20.76 l -16.46,24.8 z m 57.16,-314.58 c 18.91,10.08 35.36,24.32 47.77,41.45 -0.58,-0.16 -1.35,-0.31 -1.94,-0.47 -4.84,-1.08 -10.62,-1.91 -15.59,-1.84 v 0 l -0.2,0.01 c -2.47,0.33 -5.33,0.48 -8.36,1.02 -8.31,-8.74 -18.09,-16.25 -28.74,-22.19 3.14,-5.53 5.87,-11.8 7.06,-17.98 z"
   id="path220" />
		<path
   class="st12"
   d="m 834.38,450.16 95.39,-5.12 c 4.39,-0.24 8.21,3.19 8.45,7.58 v 0 c 0.24,4.38 -3.21,8.02 -7.6,8.25 l -95.39,5.12 c -4.39,0.24 -8.01,-3.02 -8.24,-7.4 v 0 c -0.24,-4.39 2.99,-8.2 7.39,-8.43 z"
   id="path221" />
		<path
   class="st12"
   d="M 835.61,473.24 931,468.12 c 4.39,-0.24 8.2,3 8.44,7.39 v 0 c 0.24,4.39 -3.2,8.22 -7.59,8.45 l -95.39,5.12 c -4.39,0.24 -8.02,-3.21 -8.25,-7.6 v 0 c -0.23,-4.39 3.01,-8 7.4,-8.24 z"
   id="path222" />
		<path
   class="st12"
   d="m 846.16,495.06 76.7,-4.12 c 4.39,-0.24 8.21,3.2 8.44,7.59 v 0 c 0.24,4.39 -3.19,8.21 -7.58,8.44 l -76.7,4.12 c -4.38,0.24 -8.21,-3.19 -8.44,-7.58 v 0 c -0.24,-4.39 3.2,-8.22 7.58,-8.45 z"
   id="path223" />
		<path
   class="st12"
   d="m 865.93,517.53 39.68,-2.13 c 3.82,-0.2 7.04,2.88 7.25,6.69 v 0 c 0.2,3.82 -2.68,7.03 -6.5,7.24 l -39.68,2.13 c -3.82,0.2 -7.03,-2.68 -7.24,-6.5 v 0 c -0.21,-3.81 2.67,-7.22 6.49,-7.43 z"
   id="path224" />
		<path
   class="st12"
   d="m 916.28,58.09 -23.56,42.41 c -2.25,4.33 0.37,6.87 4.41,7.41 6.74,0.79 33.47,-14.61 32.93,11.05 -0.25,20.3 -32.12,64.68 -51.41,36.82 -10.08,-9.6 -15.71,-0.31 -20.17,9.12 l -18.71,36.4 c -4.55,7.9 -2.49,7.03 -10.64,4.98 l -40.7,-9.68 -5.43,-1.24 c -11.04,-2.47 -2.41,-9.25 2.37,-12.76 10.31,-7.64 14.54,-17.81 8.87,-23.82 -15.21,-16.02 -73.53,-18.82 -65.83,14.06 1.49,6.43 -1.92,10.63 -12.18,8.31 l -48.26,-11.38 28.73,-53.01 c -9.77,-3.88 -10.91,3.46 -22.81,2.75 -16.12,-0.86 -11.41,-16.42 -1.57,-32.64 6.2,-9.32 29,-33.7 38.65,-17.95 5.46,9.08 10.16,7.49 15.51,0.12 l 22.18,-36.01 c 3.17,-5.15 2.32,-6.63 8.7,-5.44 l 43.27,7.63 c 13.91,2.5 -2.33,13.71 -7.14,16.65 -32.41,26.99 74.71,37.13 63.11,2.93 -1.37,-4.13 -3.66,-4.01 -0.39,-7.25 2.91,-2.84 6.6,-1.7 10.07,-1.31 l 46.85,6.67 c 4.62,0.7 5.59,0.84 3.15,5.18 z"
   id="path225" />
		<path
   class="st13"
   d="m 1089.89,305.37 -35.76,4.02 c -3.42,0.38 -3.85,3.08 -2.37,5.68 2.35,4.46 22.94,13.88 7.44,24.47 -12.37,8.51 -52.55,8.37 -44.05,-15.05 1.36,-10.21 -6.45,-9.6 -14.03,-8.24 l -29.8,4.47 c -6.86,0.56 -5.27,1.43 -7.7,-4.37 l -11.47,-28.47 -1.55,-3.93 c -3.28,-7.67 4.51,-5.22 8.78,-3.92 8.76,2.78 16.7,1.02 17.91,-4.98 3.17,-15.86 -20.02,-52.12 -36.61,-33.24 -3.06,3.61 -7.1,3.25 -10.16,-3.86 l -13.67,-33.71 43.9,-5.61 c -1.73,-7.37 -6.58,-5.01 -11.38,-12.4 -6.28,-10 5,-13.85 18.9,-14.99 8.23,-0.05 32.69,3.03 27.24,15.57 -3.07,7.05 -0.07,9.38 6.63,9.4 l 31.08,-2.05 c 4.58,-0.25 4.9,-1.41 7.04,2.88 l 13.81,29.11 c 4.52,9.52 -9.13,4.51 -12.85,2.98 -30.28,-7.94 9.57,60.53 25.06,39.03 1.77,-2.57 0.94,-3.87 4.23,-3.28 2.89,0.42 3.8,3.05 5.08,5.47 l 16.01,30.9 c 1.48,2.99 1.71,3.74 -1.71,4.12 z"
   id="path226" />
		<path
   class="st11"
   d="m 842.51,373.56 -7.32,-25.82 c -0.71,-2.63 -2.82,-2.72 -4.47,-1.29 -3.12,2.46 -7.6,18.77 -17.33,8.59 -7.7,-8.01 -12.55,-37.79 5.81,-34.37 7.64,-0.22 6.18,-6.07 4.36,-11.53 l -6.9,-21.45 c -1.41,-4.9 -1.73,-3.73 2.17,-6.05 l 19.63,-12.15 2.59,-1.67 c 5.38,-3.16 4.55,2.82 4.15,6.09 -0.97,6.94 1.25,12.56 5.85,12.7 12.07,0.31 35.98,-21.26 20.15,-31.12 -3.17,-1.94 -3.33,-4.99 1.48,-8.11 l 23.34,-14.27 9.36,31.83 c 5.43,-2.2 2.96,-5.52 7.88,-9.99 6.76,-5.91 11.02,2.09 13.47,12.1 1.09,6.07 1.71,24.59 -8.19,22.06 -5.62,-1.23 -7.02,1.14 -6.18,6.07 l 5.42,22.67 c 0.76,3.4 1.72,3.54 -1.23,5.62 l -19.92,13.88 c -6.46,4.37 -4.36,-6.27 -3.75,-9.36 2.21,-23.08 -43.61,14.59 -25.73,23.39 2.17,1.22 3.07,0.21 3.01,2.71 -0.07,2.3 -1.92,3.35 -3.4,4.39 l -20.97,15.67 c -2.01,1.64 -2.58,1.86 -3.28,-0.59 z"
   id="path227" />
		<g
   id="g228">
			<path
   class="st10"
   d="m 1259.48,188.88 c 0.68,13.61 -1.6,25.82 -6.85,36.64 -5.25,10.82 -12.79,19.63 -22.62,26.43 11.88,5.97 21.45,14.53 28.7,25.69 7.25,11.16 11.27,24.5 12.05,40.04 1.25,24.91 -4.96,44.94 -18.61,60.11 -13.66,15.16 -32.87,23.37 -57.65,24.61 -24.78,1.24 -44.85,-4.99 -60.21,-18.7 -15.36,-13.71 -23.66,-33.02 -24.91,-57.93 -0.78,-15.53 1.88,-29.25 7.98,-41.14 6.09,-11.89 14.83,-21.34 26.19,-28.34 -10.59,-5.77 -19.03,-13.78 -25.34,-24.02 -6.31,-10.24 -9.8,-22.16 -10.48,-35.77 -1.23,-24.52 4.68,-44.06 17.72,-58.61 13.04,-14.55 31.12,-22.41 54.23,-23.57 23.37,-1.17 42.2,4.9 56.52,18.21 14.3,13.3 22.06,32.09 23.28,56.35 z m -67.25,168.25 c 8.22,-0.41 14.36,-4.23 18.44,-11.45 4.08,-7.22 5.81,-17.05 5.18,-29.51 -0.62,-12.45 -3.42,-22.09 -8.4,-28.92 -4.98,-6.83 -11.51,-10.04 -19.6,-9.64 -8.09,0.41 -14.3,4.26 -18.63,11.55 -4.33,7.3 -6.19,17.17 -5.56,29.62 0.62,12.45 3.45,22.06 8.49,28.82 5.05,6.78 11.74,9.95 20.08,9.53 z m 13.09,-162.64 c -0.55,-10.91 -2.75,-19.55 -6.61,-25.93 -3.86,-6.37 -9.45,-9.37 -16.77,-9.01 -6.93,0.35 -12.04,3.79 -15.31,10.32 -3.28,6.54 -4.63,15.45 -4.06,26.75 0.55,11.04 2.8,19.84 6.73,26.4 3.93,6.56 9.49,9.66 16.68,9.3 7.19,-0.36 12.35,-4 15.48,-10.91 3.12,-6.9 4.41,-15.87 3.86,-26.92 z"
   id="path228" />
		</g>
		<g
   id="g232">
			<path
   class="st14"
   d="m 1995.08,242.02 -62.12,3.11 -0.73,-14.48 26.71,-37.71 c 3.37,-5.2 5.81,-9.74 7.34,-13.62 1.52,-3.88 2.2,-7.55 2.03,-11.03 -0.23,-4.68 -1.23,-8.31 -2.98,-10.88 -1.75,-2.57 -4.15,-3.78 -7.19,-3.63 -3.33,0.17 -5.9,1.84 -7.7,5.03 -1.8,3.19 -2.56,7.58 -2.28,13.18 l -20.56,1.03 c -0.32,-6.47 0.72,-12.45 3.13,-17.94 2.41,-5.49 5.97,-9.84 10.67,-13.06 4.7,-3.21 10.12,-4.97 16.25,-5.28 9.41,-0.47 16.84,1.76 22.29,6.69 5.45,4.93 8.41,12.17 8.89,21.73 0.3,5.94 -0.84,12.03 -3.4,18.28 -2.56,6.25 -7.39,14.03 -14.47,23.34 l -12.57,20.01 35.84,-1.8 z"
   id="path229" />
			<path
   class="st14"
   d="m 2057.11,195.21 c 0.73,14.58 -1.35,25.86 -6.25,33.85 -4.9,7.99 -12.25,12.23 -22.05,12.72 -9.7,0.49 -17.38,-2.89 -23.05,-10.13 -5.67,-7.24 -8.94,-17.86 -9.84,-31.85 l -1,-19.91 c -0.73,-14.53 1.35,-25.78 6.22,-33.74 4.87,-7.96 12.24,-12.19 22.08,-12.68 9.85,-0.49 17.59,2.94 23.24,10.3 5.64,7.36 8.87,18.12 9.67,32.25 z m -21.64,-20.33 c -0.42,-8.3 -1.55,-14.49 -3.4,-18.56 -1.85,-4.07 -4.51,-6.02 -7.99,-5.84 -6.52,0.33 -9.52,8.1 -8.99,23.32 l 1.32,26.28 c 0.43,8.5 1.57,14.78 3.45,18.85 1.87,4.07 4.57,6.01 8.1,5.84 3.33,-0.17 5.71,-2.23 7.13,-6.2 1.42,-3.97 1.98,-9.96 1.68,-17.98 z"
   id="path230" />
			<path
   class="st10"
   d="m 2127.09,235.4 -62.12,3.11 -0.73,-14.48 26.71,-37.71 c 3.37,-5.2 5.81,-9.74 7.34,-13.62 1.52,-3.88 2.2,-7.55 2.02,-11.03 -0.23,-4.68 -1.23,-8.31 -2.98,-10.88 -1.75,-2.57 -4.15,-3.78 -7.19,-3.63 -3.33,0.17 -5.9,1.84 -7.7,5.03 -1.8,3.19 -2.56,7.58 -2.28,13.18 l -20.56,1.03 c -0.32,-6.47 0.72,-12.45 3.13,-17.94 2.41,-5.49 5.97,-9.84 10.67,-13.06 4.7,-3.21 10.12,-4.97 16.25,-5.28 9.41,-0.47 16.84,1.76 22.29,6.69 5.45,4.93 8.41,12.17 8.89,21.73 0.3,5.94 -0.84,12.03 -3.4,18.28 -2.56,6.25 -7.39,14.03 -14.47,23.34 l -12.57,20.01 35.84,-1.8 z"
   id="path231" />
			<path
   class="st10"
   d="m 2180.21,192.81 8.98,-0.45 0.85,17.02 -8.98,0.45 1.14,22.81 -20.49,1.03 -1.14,-22.81 -34.9,1.75 -1.6,-13.2 32.29,-71.16 20.56,-1.03 z m -36.42,1.83 15.93,-0.8 -1.77,-35.26 -0.39,0.82 z"
   id="path232" />
		</g>
	</g>
	<path
   class="st5"
   d="m 2210.89,-132.57 c -58.5,164.32 27.28,344.95 191.6,403.45 164.32,58.5 344.95,-27.28 403.45,-191.6 z"
   id="path233" />
	<g
   id="g309">
		<ellipse
   class="st15"
   cx="2391.1499"
   cy="269.10999"
   rx="134.10001"
   ry="135.27"
   id="ellipse233" />
		<circle
   class="st1"
   cx="2395.5801"
   cy="259.03"
   r="129.42999"
   id="circle233" />
		<g
   id="g308">
			<g
   id="g307">
				<g
   id="g306">
					<path
   class="st16"
   d="m 2395.84,219.46 c -9.81,0.05 -17.61,-7.65 -17.66,-17.44 -0.05,-9.78 7.73,-17.79 17.53,-17.78 10.26,0.01 17.77,8.45 17.69,17.9 -0.06,9.44 -7.88,17.26 -17.56,17.32 z m 6.4,-10.98 c -0.89,-0.26 -1.76,-0.58 -2.71,-0.47 0.08,-0.77 -0.08,-1.15 -0.95,-0.7 -0.33,0.17 -0.75,0.4 -1.14,0.2 -1.02,-0.51 -1.45,0.14 -1.93,0.88 2.44,0.18 2.44,0.18 4.03,-0.38 0.89,0.17 1.62,1.25 2.68,0.47 0.07,-0.17 0.15,-0.34 0.22,-0.51 0.32,-0.45 0.79,0.51 1.2,-0.19 0.55,-0.93 1.19,-1.79 1.41,-2.91 -0.66,-0.11 -1.24,-0.04 -1.83,0.14 -0.45,0.14 -0.8,0.39 -0.64,0.83 0.27,0.76 -0.05,1.43 -0.11,2.15 -0.15,0.12 -0.27,0.27 -0.23,0.49 z m 9.04,-7.16 c 0.54,-0.11 1.45,0.41 1.29,-0.9 -0.39,-3.2 -1.48,-6.1 -3.41,-8.68 -1.3,-1.73 -1.29,-1.71 -2.77,-0.12 -0.35,0.37 -0.55,0.6 -0.06,1.06 2.19,2.02 3.12,4.67 3.5,7.52 0.14,1.04 0.51,1.31 1.45,1.12 z m 1.32,1.56 c 0,-0.22 0.09,-0.79 -0.59,-0.69 -0.73,0.11 -1.89,-0.49 -2.05,0.75 -0.38,2.82 -1.26,5.42 -3.06,7.64 -0.53,0.66 -0.58,1.06 0.1,1.55 0.26,0.19 0.47,0.45 0.68,0.69 0.32,0.37 0.56,0.45 0.94,-0.02 2.32,-2.83 3.66,-6.05 3.98,-9.92 z m -17.23,14.5 c 0.27,-1.05 -0.19,-1.4 -1.21,-1.5 -2.46,-0.23 -4.71,-1.1 -6.69,-2.6 -1.33,-1.01 -1.26,-0.97 -2.47,0.1 -0.78,0.69 -0.52,1.03 0.14,1.53 2.63,1.99 5.55,3.25 8.85,3.67 1.04,0.14 1.71,0.1 1.38,-1.2 z M 2380.4,201.5 c 1.05,0.28 1.35,-0.08 1.45,-1.17 0.22,-2.48 1.1,-4.77 2.63,-6.78 1,-1.32 0.95,-1.29 -0.19,-2.47 -0.59,-0.61 -0.91,-0.49 -1.39,0.1 -2.12,2.65 -3.37,5.65 -3.78,9.01 -0.13,1.03 0.04,1.69 1.28,1.31 z m 14.69,-14.84 c -0.02,-1.62 -0.04,-1.65 -1.46,-1.43 -3.22,0.48 -6.12,1.69 -8.6,3.83 -0.31,0.27 -1.18,0.61 -0.36,1.15 0.62,0.41 0.84,1.94 2.12,0.86 2.09,-1.74 4.46,-2.92 7.19,-3.16 0.98,-0.09 1.28,-0.46 1.11,-1.25 z m 3.82,29.05 c -0.23,0.02 -0.35,0.03 -0.47,0.04 -1.96,0.18 -1.9,0.19 -2.09,2.09 -0.09,0.85 0.27,0.86 0.88,0.8 3.32,-0.36 6.34,-1.49 8.98,-3.56 1.45,-1.14 1.46,-1.15 0.04,-2.38 -0.26,-0.23 -0.5,-0.87 -0.94,-0.39 -0.9,0.97 -2.24,1.4 -2.98,2.61 -0.8,1.3 -1.47,1.41 -2.93,0.88 -0.19,-0.07 -0.4,-0.07 -0.49,-0.09 z m -1.63,-27.91 c 1.61,0.23 3.08,0.67 4.46,1.33 0.27,0.13 0.53,0.2 0.81,0.13 1.12,-0.3 1.79,0.37 2.4,1.13 0.19,0.23 0.29,0.83 0.54,0.67 0.55,-0.36 1.04,-0.89 1.41,-1.44 0.2,-0.3 -0.29,-0.5 -0.52,-0.7 -2.4,-2.06 -5.22,-3.16 -8.3,-3.67 -1.94,-0.32 -2.14,-0.15 -1.96,1.8 0.01,0.07 0.07,0.13 0.13,0.22 1,-0.23 1.95,-1.25 3.13,-0.31 -0.53,0.71 -1.48,0.11 -2.1,0.84 z m -13.41,13.68 c 1.07,0.31 1.36,-0.27 1.46,-1.22 0.17,-1.54 0.74,-2.96 1.61,-4.26 0.96,-1.42 0.92,-1.4 -0.27,-2.57 -0.51,-0.5 -0.7,-0.34 -1.1,0.12 -1.65,1.95 -2.45,4.23 -2.86,6.69 -0.17,0.98 -0.08,1.63 1.16,1.24 z m 11.24,-11.32 c -0.05,-1.51 -0.06,-1.55 -1.45,-1.3 -2.25,0.4 -4.35,1.2 -6.09,2.74 -0.3,0.27 -1.22,0.52 -0.4,1.12 0.58,0.42 0.83,1.83 2.06,0.82 1.39,-1.15 3.02,-1.86 4.81,-2.12 0.88,-0.13 1.37,-0.4 1.07,-1.26 z m 12.8,12.15 c -1.47,0.01 -1.61,0.16 -1.49,1.55 0.01,0.15 0.13,0.37 0.06,0.46 -0.9,1.19 -1.05,2.77 -2.07,3.9 -0.57,0.64 -0.88,1.21 0.42,1.25 0.29,0.01 0.4,0.27 0.46,0.49 0.29,1.04 0.61,0.49 0.97,0.04 1.52,-1.86 2.3,-4.02 2.7,-6.36 0.18,-0.99 0.02,-1.6 -1.05,-1.33 z m -0.13,-0.98 c 0.37,-0.1 0.89,0.26 1.18,-0.26 0.3,-0.55 -0.64,-4.16 -1.2,-4.45 -1.03,-0.53 -1.76,-1.47 -2.77,-2.01 -0.61,-0.33 -0.97,-0.77 -1.08,-1.46 -0.06,-0.34 -0.24,-0.77 -0.72,-0.58 -0.48,0.18 -0.32,0.58 -0.17,0.92 0.36,0.82 0.93,1.5 1.46,2.2 0.19,0.25 0.56,0.05 0.76,0.54 0.54,1.28 0.81,2.61 1.07,3.94 0.16,0.85 0.36,1.52 1.47,1.16 z m -12.42,12.6 c 0.15,-0.88 -0.06,-1.35 -1.1,-1.36 -1,-0.01 -2.06,-0.27 -2.85,-0.86 -1.14,-0.86 -2.19,-0.42 -3.29,-0.09 -0.21,0.07 -0.53,0.02 -0.61,0.29 -0.1,0.35 0.23,0.47 0.45,0.63 1.86,1.34 3.94,2.15 6.21,2.49 0.88,0.14 1.44,-0.05 1.19,-1.1 z m 1.79,-25.17 c -0.35,0.15 -1.05,-0.37 -1,0.42 0.04,0.69 -0.51,1.78 0.39,2.01 1.56,0.39 3.13,0.68 4.56,1.47 0.31,0.17 1.52,-0.21 1.46,-0.39 -0.26,-0.91 -0.34,-1.96 -1.35,-2.42 -1.3,-0.58 -2.64,-1 -4.06,-1.09 z m -0.99,4.64 c -0.28,0.99 0.23,1.37 1.14,1.5 0.72,0.1 1.48,0.27 2.02,0.74 1.01,0.89 1.62,0.44 2.35,-0.39 0.55,-0.61 0.44,-0.86 -0.18,-1.28 -1.25,-0.87 -2.62,-1.4 -4.09,-1.72 -1.02,-0.22 -1.49,0.04 -1.24,1.15 z m -7.53,15.09 c -0.01,0 0.1,-0.05 0.2,-0.11 1.41,-0.96 1.44,-1.46 0.82,-3.02 -0.4,-1 -1.83,-1.87 -0.68,-3.25 0.11,-0.13 -0.08,-0.53 -0.17,-0.79 -0.12,-0.36 -0.43,-0.3 -0.71,-0.27 -0.31,0.02 -0.49,0.24 -0.36,0.48 0.41,0.75 -0.35,0.97 -0.63,1.35 -0.19,0.27 -0.48,0.41 -0.28,0.78 0.76,1.43 0.78,3.09 1.36,4.57 0.06,0.17 0,0.44 0.45,0.26 z m 6.5,-15.15 c 0.08,-0.62 0.4,-1.26 -0.59,-1.12 -1.85,0.25 -3.48,0.98 -4.93,2.14 -0.26,0.2 -0.36,0.36 -0.13,0.69 0.82,1.2 1.47,1.36 2.71,0.64 0.49,-0.28 0.99,-0.58 1.53,-0.7 1.02,-0.21 2,-0.34 1.41,-1.65 z m -0.67,11.06 c 0.9,0.53 3.09,-0.13 3.2,-1.06 0.12,-1 -0.19,-2.13 -0.74,-2.9 -0.86,-1.18 -1.73,-1 -2.96,0.18 -0.4,0.39 -0.62,0.8 -0.45,1.28 0.16,0.46 0.64,0.55 1.11,0.5 1.21,-0.12 0.96,0.46 0.68,1.23 -0.17,0.47 -0.66,0.43 -0.84,0.77 z m -8.94,7.33 c -0.17,-0.26 -0.22,-0.37 -0.31,-0.45 -1.31,-1.2 -2.61,-2.43 -4.29,-3.13 -0.12,-0.05 -0.35,-0.03 -0.44,0.05 -0.19,0.16 -0.02,0.36 0.05,0.54 0.56,1.44 1.42,2.7 2.39,3.89 0.23,0.28 0.44,0.91 0.84,0.66 0.67,-0.41 1.2,-1.05 1.76,-1.56 z m 0.61,-10.95 c 0.02,0.36 -0.05,0.71 0.45,0.72 0.48,0.01 0.52,-0.27 0.52,-0.62 0,-0.6 0.2,-1.21 0.67,-1.47 0.75,-0.42 1.21,-1.15 1.96,-1.56 0.37,-0.21 0.77,-0.56 0.34,-1.06 -0.34,-0.4 -0.75,-0.73 -1.12,-1.11 -0.29,-0.29 -0.47,-0.15 -0.68,0.1 -1.23,1.47 -1.89,3.17 -2.14,5 z m 7.61,10.63 c -0.07,-0.61 -0.71,-0.93 -0.31,-1.47 0.52,-0.7 0.29,-1.08 -0.52,-1.26 -0.26,-0.06 -0.55,-0.21 -0.73,-0.4 -1,-1.12 -1.66,-0.53 -2.4,0.34 -0.4,0.47 -0.38,0.69 0.06,1.03 1.13,0.86 2.37,1.44 3.9,1.76 z m -13.72,-4.2 c 0.36,-1.09 0.36,-1.1 1.37,-1.54 0.54,-0.24 0.8,-0.58 0.6,-1.21 -0.12,-0.38 -0.19,-0.79 -0.19,-1.19 0.01,-0.56 -0.18,-0.75 -0.77,-0.77 -2.11,-0.09 -2.1,-0.11 -1.73,2.01 0.16,0.87 0.3,1.74 0.72,2.7 z m 24.6,-7.1 c 0.96,-0.7 0.98,-1.24 0.08,-2.06 -0.4,-0.37 -0.84,-0.51 -0.71,-1.29 0.12,-0.74 -1.06,-1.53 -1.46,-1.15 -0.55,0.51 -1.03,1.08 -1.64,1.74 1.02,0.34 2.33,-0.16 2.57,1.29 0,0.04 0.15,0.09 0.21,0.08 1.19,-0.22 0.99,0.65 0.95,1.39 z m -9.13,6.31 c -0.2,-1.08 -1.44,-0.75 -2.09,-1.29 -0.2,-0.16 -1.56,1.18 -1.56,1.5 0.01,0.39 2.02,1.57 2.64,1.4 0.67,-0.18 0.97,-0.78 1.01,-1.61 z m 2.43,-9.26 c 0.07,0.37 -0.07,0.57 -0.19,0.78 -0.13,0.23 -0.63,0.37 -0.17,0.75 0.34,0.29 0.61,0.32 0.92,-0.04 0.21,-0.24 0.55,-0.38 0.71,-0.63 0.35,-0.56 0.76,-1.14 -0.23,-1.57 -0.71,-0.31 -1.41,-0.59 -2.16,-0.75 -0.45,-0.1 -0.61,-0.01 -0.59,0.55 0.03,1.49 0.13,1.58 1.71,0.91 z m -2.6,-0.75 c 0.11,-0.61 -0.25,-0.85 -1.11,-0.58 -0.81,0.25 -1.58,0.57 -2.23,1.11 -0.17,0.15 -0.57,0.31 -0.25,0.65 0.5,0.52 1.29,1.16 1.79,0.7 0.57,-0.53 1.83,-0.36 1.8,-1.88 z m -12.12,9.15 c 0.26,-1 0.71,-1.78 1.72,-2.16 0.27,-0.1 0.23,-0.29 0.23,-0.48 0.01,-0.23 -0.09,-0.4 -0.34,-0.4 -0.64,0.01 -1.39,-0.16 -1.88,0.11 -0.45,0.25 -0.17,1.02 -0.1,1.56 0.07,0.46 0.25,0.91 0.37,1.37 z m 14.96,9.23 c -0.48,-0.39 -0.85,-0.7 -0.72,-1.27 0.12,-0.57 -0.29,-0.55 -0.66,-0.57 -0.44,-0.03 -0.49,0.25 -0.53,0.61 -0.16,1.58 0.03,1.73 1.91,1.23 z m -8.35,-11.18 c 0.13,0.71 0.42,1.29 0.79,1.85 0.2,0.31 0.4,0.5 0.76,0.24 0.36,-0.27 0.61,-0.76 0.28,-1.01 -0.54,-0.38 -0.88,-1.17 -1.83,-1.08 z m 13.7,8.9 c 0.77,-0.12 1.16,-0.97 0.75,-1.57 -0.25,-0.35 -0.57,-0.66 -0.87,-0.97 -0.12,-0.12 -0.25,-0.34 -0.47,-0.1 -0.21,0.23 -0.2,0.48 0.04,0.6 0.73,0.37 0.93,0.8 0.33,1.48 -0.16,0.19 -0.18,0.56 0.22,0.56 z m -10.96,-10.77 c -0.49,-0.03 -0.68,0.25 -0.71,0.66 -0.02,0.39 0.32,0.29 0.51,0.27 0.31,-0.04 0.8,0.12 0.76,-0.48 -0.03,-0.37 -0.26,-0.47 -0.56,-0.45 z m 12.8,2.12 c 0.14,-0.56 0.49,-1.05 -0.01,-1.47 -0.2,-0.17 -0.8,-0.18 -0.89,0.07 -0.23,0.67 0.37,0.97 0.9,1.4 z"
   id="path234" />
					<path
   class="st16"
   d="m 2343.7,248.75 c 4.87,2.51 6.21,7.38 3.13,11.57 -1.73,2.34 -4.29,3.29 -7.09,3.41 -3.56,0.15 -7.12,0.06 -10.68,0.16 -0.99,0.03 -1.1,-0.35 -1.11,-1.18 -0.02,-8.25 -0.08,-16.5 -0.13,-24.76 -0.02,-2.85 -0.02,-2.86 2.9,-2.87 2.87,-0.01 5.75,-0.07 8.62,0 3.78,0.09 6.69,2.03 7.63,5.09 1.08,3.54 0.12,6.6 -2.81,8.19 -0.17,0.09 -0.3,0.25 -0.46,0.39 z m -7.47,2.68 c -0.61,0 -1.21,0.03 -1.82,0 -0.62,-0.03 -0.87,0.2 -0.86,0.84 0.04,2.02 0.03,4.04 0.05,6.06 0,0.4 0.06,0.75 0.57,0.74 1.98,-0.01 3.97,0.15 5.89,-0.44 1.65,-0.51 2.45,-1.67 2.45,-3.34 0,-1.73 -0.86,-2.99 -2.44,-3.51 -1.25,-0.4 -2.55,-0.37 -3.84,-0.35 z m -0.09,-11.65 c -0.72,0.01 -1.29,0.02 -1.85,0 -0.56,-0.02 -0.81,0.2 -0.8,0.78 0.03,1.9 0.04,3.8 0.04,5.7 0,0.44 0.17,0.69 0.64,0.68 1.73,-0.05 3.48,0.17 5.17,-0.4 1.75,-0.58 2.53,-1.81 2.37,-3.74 -0.13,-1.55 -1.23,-2.64 -2.94,-2.88 -0.93,-0.13 -1.86,-0.21 -2.63,-0.14 z"
   id="path235" />
					<path
   class="st16"
   d="m 2297.47,248.19 c 0.12,-3.83 1.78,-8.42 6.42,-11.39 7.42,-4.75 19.06,-1.96 21.27,9.51 0.94,4.89 0.03,9.42 -3.11,13.37 -2.25,2.83 -5.27,4.33 -8.84,4.73 -9.8,1.06 -15.76,-6.39 -15.74,-16.22 z m 22.15,1.7 c -0.02,-2.66 -0.58,-4.8 -1.62,-6.53 -2.83,-4.73 -9.54,-5 -12.74,-0.52 -2.52,3.53 -2.56,9.76 -0.1,13.32 2.65,3.83 8.03,4.54 11.46,1.39 2.33,-2.14 2.92,-5.03 3,-7.66 z"
   id="path236" />
					<path
   class="st16"
   d="m 2488.58,241.52 c -0.36,0 -0.74,-0.06 -1.09,0.02 -1.06,0.24 -1.68,-0.02 -1.96,-1.19 -0.2,-0.8 -1,-1.24 -1.78,-1.54 -1.5,-0.58 -3.01,-0.53 -4.51,-0.03 -1.3,0.42 -2.18,1.25 -2.29,2.68 -0.11,1.36 0.59,2.33 1.73,2.95 1.79,0.98 3.79,1.38 5.71,1.99 2.16,0.69 4.36,1.33 5.94,3.08 2.85,3.16 2.42,8.59 -0.88,11.48 -3.67,3.21 -11.61,3.4 -15.46,0.4 -1.99,-1.55 -2.86,-3.64 -3.13,-6.06 -0.05,-0.48 0.09,-0.66 0.57,-0.68 1.49,-0.05 2.98,-0.12 4.48,-0.19 0.3,-0.01 0.58,-0.02 0.62,0.38 0.15,1.65 0.97,2.83 2.52,3.4 1.89,0.71 3.8,0.68 5.66,-0.18 1.41,-0.65 1.96,-1.63 1.85,-3.08 -0.1,-1.22 -0.91,-1.9 -1.91,-2.29 -2.52,-0.98 -5.07,-1.87 -7.62,-2.79 -2.93,-1.06 -5.03,-2.91 -5.62,-6.1 -0.6,-3.22 1.02,-6.75 3.83,-8.57 3.63,-2.35 9.87,-2.12 13.32,0.48 1.63,1.23 2.49,2.94 2.91,4.88 0.13,0.57 0.01,0.95 -0.71,0.91 -0.73,-0.04 -1.46,0 -2.19,0 0.01,0.02 0.01,0.04 0.01,0.05 z"
   id="path237" />
					<path
   class="st16"
   d="m 2366.03,249.24 c -0.03,-4.41 -0.03,-8.82 -0.1,-13.23 -0.01,-0.86 0.14,-1.19 1.11,-1.18 5.38,0.01 10.76,-0.02 16.14,-0.1 0.86,-0.01 1.27,0.15 1.19,1.11 -0.08,0.92 -0.06,1.86 0.01,2.79 0.06,0.84 -0.21,1.11 -1.07,1.11 -3.48,-0.02 -6.96,0.06 -10.44,0.02 -1.03,-0.01 -1.33,0.31 -1.27,1.31 0.09,1.4 0.1,2.83 0.02,4.24 -0.07,1.06 0.35,1.26 1.31,1.24 3.28,-0.08 6.56,-0.04 9.83,-0.1 0.91,-0.02 1.36,0.16 1.26,1.18 -0.08,0.92 -0.06,1.86 0.01,2.79 0.07,0.84 -0.2,1.11 -1.06,1.1 -3.36,-0.03 -6.72,0.05 -10.07,0.02 -0.92,-0.01 -1.29,0.2 -1.23,1.2 0.09,1.61 0.08,3.24 0.04,4.86 -0.02,0.8 0.24,1.04 1.04,1.03 3.52,-0.05 7.04,-0.02 10.56,-0.1 1,-0.02 1.26,0.3 1.2,1.23 -0.06,0.92 -0.04,1.86 0.01,2.79 0.04,0.72 -0.17,0.99 -0.94,0.99 -5.5,0.01 -11,0.03 -16.51,0.11 -0.86,0.01 -0.98,-0.33 -0.98,-1.06 0.01,-4.45 -0.03,-8.9 -0.06,-13.35 z"
   id="path238" />
					<path
   class="st16"
   d="m 2428.66,255.91 c 0.59,-2.12 1.09,-3.89 1.58,-5.66 1.37,-4.94 2.76,-9.87 4.1,-14.82 0.2,-0.75 0.51,-1.05 1.31,-1.01 1.29,0.06 2.6,0.06 3.88,-0.03 1.07,-0.07 1.11,0.34 0.83,1.19 -1.77,5.49 -3.52,11 -5.27,16.49 -1.08,3.39 -2.17,6.76 -3.21,10.16 -0.22,0.72 -0.51,1.07 -1.32,1.03 -1.38,-0.06 -2.76,-0.04 -4.13,0.02 -0.71,0.04 -0.98,-0.24 -1.19,-0.88 -2.94,-8.93 -5.9,-17.85 -8.88,-26.76 -0.28,-0.84 -0.18,-1.16 0.78,-1.12 1.25,0.06 2.51,0.07 3.76,-0.03 0.98,-0.08 1.42,0.24 1.69,1.21 1.77,6.12 3.61,12.23 5.43,18.34 0.17,0.51 0.35,1 0.64,1.87 z"
   id="path239" />
					<path
   class="st16"
   d="m 2398.6,251.6 c 0.02,3.44 -0.03,6.88 0.1,10.32 0.05,1.34 -0.39,1.67 -1.61,1.55 -0.88,-0.09 -1.78,-0.07 -2.67,0.02 -1.07,0.11 -1.44,-0.2 -1.44,-1.36 0.02,-7 -0.08,-14 -0.07,-21.01 0,-1.16 -0.29,-1.55 -1.48,-1.47 -1.69,0.11 -3.4,-0.01 -5.1,0.08 -0.94,0.05 -1.21,-0.29 -1.13,-1.17 0.12,-1.24 -0.54,-2.85 0.25,-3.62 0.72,-0.71 2.31,-0.2 3.52,-0.21 5.31,-0.05 10.61,-0.05 15.91,-0.12 0.95,-0.02 1.3,0.23 1.22,1.2 -0.08,0.96 -0.04,1.94 0.01,2.91 0.04,0.71 -0.25,0.9 -0.91,0.89 -1.74,-0.02 -3.48,0.09 -5.22,0 -1.14,-0.06 -1.52,0.22 -1.49,1.44 0.12,3.51 0.09,7.03 0.11,10.55 z"
   id="path240" />
					<path
   class="st16"
   d="m 2404.74,301.65 c -0.01,-1.98 -0.03,-3.61 -0.03,-5.25 -0.02,-2.47 0.01,-4.94 -0.07,-7.41 -0.02,-0.86 0.25,-1.08 1.09,-1.08 2.85,0 2.85,-0.04 2.86,2.83 0.03,5.55 0.04,11.09 0.12,16.64 0.01,0.92 -0.28,1.05 -1.14,1.16 -2.26,0.32 -3.55,-0.5 -4.65,-2.52 -2.08,-3.81 -4.51,-7.43 -6.97,-11.41 -0.03,0.64 -0.07,0.97 -0.07,1.3 0.02,3.89 0.02,7.77 0.09,11.66 0.01,0.79 -0.21,1.02 -1.02,1.03 -2.86,0.02 -2.86,0.06 -2.88,-2.79 -0.03,-5.55 -0.05,-11.09 -0.12,-16.64 -0.01,-0.88 0.23,-1.07 1.12,-1.21 2.41,-0.37 3.8,0.53 4.93,2.69 1.73,3.28 3.82,6.37 5.76,9.54 0.25,0.4 0.52,0.78 0.98,1.46 z"
   id="path241" />
					<path
   class="st16"
   d="m 2362.13,246.23 c -0.14,3.04 0.33,6.77 -0.17,10.47 -0.54,3.98 -2.85,6.29 -6.8,6.96 -1.73,0.29 -3.47,0.23 -5.2,0.31 -0.56,0.03 -0.81,-0.16 -0.8,-0.75 0.02,-1.13 0.03,-2.27 -0.03,-3.4 -0.03,-0.65 0.29,-0.72 0.81,-0.71 0.97,0.02 1.94,0.01 2.91,-0.01 2.39,-0.07 3.65,-1.25 3.66,-3.6 0.02,-4.9 -0.06,-9.79 -0.06,-14.69 0,-0.79 -0.32,-0.94 -1.02,-0.93 -1.82,0.05 -3.64,0 -5.46,0.06 -0.76,0.03 -1.1,-0.15 -1.05,-0.99 0.06,-1.05 0.03,-2.1 -0.01,-3.15 -0.03,-0.62 0.16,-0.85 0.81,-0.85 3.84,0 7.69,-0.01 11.53,-0.07 0.8,-0.01 0.81,0.39 0.81,0.97 0.02,3.23 0.04,6.47 0.07,10.38 z"
   id="path242" />
					<path
   class="st16"
   d="m 2318.9,295.64 c -0.01,-2.06 -0.01,-4.12 -0.05,-6.19 -0.02,-0.69 0.13,-0.99 0.92,-1.02 3.2,-0.1 3.2,-0.13 3.22,3.1 0.02,2.95 0.03,5.91 0.06,8.86 0.01,0.65 0.01,1.31 0.14,1.93 0.55,2.45 2.22,3.54 4.98,3.3 2.18,-0.19 3.64,-1.75 3.67,-4.2 0.06,-3.93 0.04,-7.85 -0.02,-11.78 -0.02,-1 0.26,-1.31 1.28,-1.3 2.81,0.03 2.81,-0.02 2.83,2.85 0.02,3.44 0.09,6.88 0.04,10.32 -0.06,3.95 -2.68,7.11 -6.47,7.64 -4.62,0.65 -8.15,-0.56 -9.88,-4.63 -0.57,-1.32 -0.68,-2.72 -0.69,-4.15 -0.01,-1.57 -0.02,-3.15 -0.03,-4.73 z"
   id="path243" />
					<path
   class="st16"
   d="m 2347.48,309.16 c -2.5,0.06 -4.64,-0.3 -6.32,-2.06 -0.17,-0.17 -0.35,-0.35 -0.47,-0.55 -0.66,-1.08 -1.57,-2.5 -0.88,-3.44 0.59,-0.8 2.27,-0.27 3.46,-0.31 0.44,-0.01 0.43,0.36 0.52,0.68 0.36,1.41 1.43,2.02 2.74,2.2 1.45,0.2 2.87,0.01 3.88,-1.19 0.79,-0.94 0.42,-2.2 -0.78,-2.83 -1.69,-0.87 -3.53,-1.37 -5.32,-2.01 -3.07,-1.1 -4.75,-3.37 -4.4,-6.01 0.44,-3.25 2.84,-5.47 6.12,-5.66 2.04,-0.12 4.04,-0.03 5.83,1.14 1.33,0.87 2.07,2.11 2.45,3.62 0.14,0.58 -0.02,0.82 -0.62,0.83 -0.97,0.03 -1.94,-0.1 -2.9,0.12 -0.48,0.11 -0.49,-0.27 -0.6,-0.57 -0.79,-2.2 -4.42,-2.16 -5.7,-0.73 -0.94,1.05 -0.62,2.4 0.78,3.22 1.13,0.66 2.43,0.85 3.64,1.3 0.72,0.27 1.46,0.45 2.17,0.74 2.53,1 3.78,2.74 3.79,5.21 0.01,2.47 -1.52,4.76 -3.81,5.7 -1.21,0.5 -2.48,0.67 -3.58,0.6 z"
   id="path244" />
					<path
   class="st16"
   d="m 2307.58,309.4 c -1.09,0.08 -2.36,-0.08 -3.6,-0.53 -2.38,-0.88 -3.54,-2.67 -3.89,-5.1 -0.08,-0.56 0.13,-0.72 0.65,-0.7 0.44,0.02 0.89,0 1.33,-0.02 1.11,-0.06 2.09,-0.24 2.55,1.34 0.39,1.33 1.83,1.56 3.14,1.58 1.32,0.02 2.52,-0.29 3.28,-1.46 0.62,-0.94 0.2,-2.08 -1.06,-2.68 -1.12,-0.53 -2.32,-0.9 -3.49,-1.33 -0.6,-0.22 -1.22,-0.43 -1.82,-0.65 -3.15,-1.14 -4.52,-3.18 -4.19,-6.24 0.29,-2.74 2.65,-5.05 5.59,-5.36 1.69,-0.18 3.4,-0.17 5.03,0.45 1.86,0.71 3.08,2.01 3.63,3.94 0.22,0.76 0.12,1.26 -0.85,1.18 -0.44,-0.04 -0.89,-0.04 -1.34,0.01 -0.97,0.11 -1.65,0.11 -2.22,-1.06 -0.76,-1.58 -4.3,-1.51 -5.39,-0.1 -0.7,0.92 -0.47,2.27 0.54,2.98 1.22,0.85 2.7,1.03 4.05,1.54 0.86,0.33 1.76,0.58 2.61,0.93 4.18,1.76 4.05,7.14 1.19,9.56 -1.45,1.24 -2.92,1.7 -5.74,1.72 z"
   id="path245" />
					<path
   class="st16"
   d="m 2375.31,298.35 c -0.02,-3.08 -0.01,-6.15 -0.07,-9.23 -0.02,-0.81 0.24,-1.03 1.02,-1.03 3.72,0.01 7.45,-0.01 11.17,-0.07 0.76,-0.01 0.95,0.23 0.96,0.96 0.04,2.67 0.07,2.67 -2.61,2.69 -1.82,0.01 -3.64,0.05 -5.46,0.02 -0.74,-0.02 -1.04,0.21 -0.96,0.96 0.13,1.23 -0.5,2.8 0.3,3.61 0.7,0.71 2.23,0.16 3.4,0.18 1.42,0.02 2.83,0.02 4.25,-0.03 0.69,-0.03 0.88,0.21 0.89,0.89 0.08,2.74 0.1,2.74 -2.67,2.75 -1.74,0.01 -3.48,0.05 -5.22,0.02 -0.66,-0.01 -0.95,0.19 -0.91,0.89 0.07,1.29 -0.38,2.93 0.26,3.77 0.62,0.82 2.35,0.2 3.59,0.23 1.46,0.04 2.91,-0.02 4.37,-0.01 0.29,0 0.78,-0.15 0.81,0.27 0.08,1 0.06,2.02 0.04,3.03 -0.01,0.42 -0.4,0.32 -0.66,0.32 -3.88,0.04 -7.77,0.03 -11.66,0.09 -0.84,0.01 -0.77,-0.46 -0.77,-1 -0.03,-3.07 -0.05,-6.19 -0.07,-9.31 z"
   id="path246" />
					<path
   class="st16"
   d="m 2464.9,297.82 c -0.02,-3.07 -0.01,-6.15 -0.07,-9.22 -0.02,-0.81 0.23,-1.04 1.03,-1.04 3.68,0.02 7.36,-0.01 11.04,-0.06 0.77,-0.01 1.06,0.2 1.07,1.01 0.05,2.62 0.08,2.62 -2.56,2.64 -1.82,0.01 -3.64,0.05 -5.46,0.02 -0.73,-0.01 -1.02,0.2 -0.97,0.96 0.08,1.2 -0.36,2.76 0.24,3.53 0.64,0.83 2.26,0.22 3.46,0.26 1.41,0.05 2.83,0.02 4.25,-0.02 0.63,-0.02 0.82,0.2 0.85,0.83 0.15,2.8 0.17,2.79 -2.65,2.81 -1.7,0.01 -3.4,0.06 -5.1,0.01 -0.81,-0.02 -1.05,0.27 -1,1.05 0.06,0.97 0.08,1.94 0.02,2.91 -0.06,0.85 0.31,1 1.06,0.98 2.31,-0.05 4.61,-0.02 6.92,-0.07 0.76,-0.02 1.05,0.16 1.06,0.99 0.02,2.66 0.06,2.66 -2.63,2.68 -3.15,0.02 -6.31,0.01 -9.47,0.07 -0.78,0.01 -1.04,-0.19 -1.04,-1 0.02,-3.11 -0.02,-6.23 -0.05,-9.34 z"
   id="path247" />
					<path
   class="st16"
   d="m 2426.5,308.28 c 1.54,-4.3 3.04,-8.5 4.54,-12.7 0.83,-2.31 1.69,-4.61 2.47,-6.94 0.24,-0.71 0.6,-0.9 1.31,-0.9 3.29,-0.03 3.29,-0.05 4.42,3 2.02,5.48 4.01,10.96 6.05,16.43 0.33,0.88 0.22,1.14 -0.8,1.13 -3.33,-0.02 -3.39,0.04 -4.35,-3.14 -0.31,-1.05 -0.81,-1.27 -1.79,-1.22 -1.74,0.08 -3.48,0.08 -5.22,0.03 -0.69,-0.02 -1.01,0.21 -1.19,0.86 -0.33,1.16 -0.39,2.75 -1.17,3.32 -0.97,0.69 -2.57,0.17 -3.9,0.22 -0.07,0.01 -0.15,-0.03 -0.37,-0.09 z m 9.4,-15.68 c -0.87,2.76 -1.62,5.14 -2.39,7.51 -0.16,0.49 -0.05,0.67 0.46,0.67 1.3,-0.02 2.59,-0.03 3.88,-0.02 0.55,0 0.75,-0.2 0.57,-0.74 -0.8,-2.35 -1.6,-4.71 -2.52,-7.42 z"
   id="path248" />
					<path
   class="st16"
   d="m 2453.74,302.35 c 0.74,-2.66 1.48,-5.31 2.22,-7.97 0.55,-1.98 1.13,-3.95 1.64,-5.95 0.16,-0.63 0.46,-0.86 1.1,-0.83 1.13,0.05 2.76,-0.39 3.26,0.18 0.57,0.66 -0.41,2.05 -0.74,3.1 -1.71,5.51 -3.48,10.99 -5.2,16.49 -0.2,0.64 -0.51,0.85 -1.19,0.85 -3.42,0.04 -3.4,0.05 -4.5,-3.29 -1.76,-5.36 -3.54,-10.72 -5.36,-16.05 -0.35,-1.02 -0.11,-1.22 0.9,-1.22 3.25,0.01 3.25,-0.02 4.16,3.05 1.09,3.67 2.19,7.34 3.27,11.01 0.05,0.23 0.01,0.51 0.44,0.63 z"
   id="path249" />
					<path
   class="st16"
   d="m 2414.39,249.02 c 0.03,4.33 0.01,8.66 0.11,12.98 0.03,1.17 -0.36,1.44 -1.42,1.37 -1.13,-0.08 -2.27,-0.03 -3.4,0.01 -0.62,0.02 -0.84,-0.17 -0.85,-0.82 -0.04,-9.06 -0.09,-18.11 -0.16,-27.17 -0.01,-0.66 0.25,-0.82 0.85,-0.81 1.21,0.03 2.43,0.05 3.64,-0.03 0.89,-0.06 1.17,0.2 1.17,1.13 -0.02,4.44 0.03,8.89 0.06,13.34 z"
   id="path250" />
					<path
   class="st16"
   d="m 2421.42,299.92 c 0.02,2.51 0.01,5.02 0.06,7.52 0.01,0.71 -0.14,0.98 -0.92,1 -3.2,0.08 -3.2,0.1 -3.22,-3.06 -0.03,-4.25 -0.08,-8.5 -0.06,-12.75 0,-0.91 -0.26,-1.22 -1.17,-1.16 -1.13,0.08 -2.27,0.01 -3.4,0.04 -0.64,0.03 -0.93,-0.11 -0.96,-0.85 -0.12,-2.78 -0.15,-2.78 2.65,-2.8 3.77,-0.02 7.53,-0.02 11.29,-0.09 0.85,-0.01 1.09,0.24 1.09,1.08 -0.01,2.56 0.03,2.56 -2.48,2.58 -2.92,0.02 -2.92,0.02 -2.9,2.89 0,1.88 0.01,3.74 0.02,5.6 z"
   id="path251" />
					<path
   class="st16"
   d="m 2366.77,300.25 c 0.02,2.51 0.01,5.02 0.06,7.52 0.01,0.71 -0.14,0.98 -0.92,1 -3.2,0.08 -3.2,0.1 -3.22,-3.05 -0.03,-4.25 -0.08,-8.5 -0.06,-12.75 0,-0.9 -0.26,-1.22 -1.17,-1.16 -1.13,0.08 -2.27,0.01 -3.4,0.04 -0.63,0.03 -0.93,-0.11 -0.96,-0.85 -0.12,-2.78 -0.15,-2.78 2.64,-2.8 3.76,-0.02 7.53,-0.02 11.29,-0.09 0.85,-0.02 1.09,0.23 1.09,1.08 0,2.56 0.03,2.56 -2.48,2.58 -2.92,0.02 -2.92,0.02 -2.9,2.89 0.01,1.87 0.02,3.73 0.03,5.59 z"
   id="path252" />
					<path
   class="st16"
   d="m 2481.53,297.79 c -0.02,-3.07 -0.01,-6.14 -0.07,-9.21 -0.02,-0.84 0.23,-1.11 1.08,-1.12 3.03,-0.03 3.03,-0.06 3.05,2.99 0.03,4.17 0.09,8.33 0.05,12.49 -0.01,1.04 0.32,1.28 1.3,1.24 1.94,-0.08 3.88,-0.02 5.82,-0.07 0.69,-0.02 0.88,0.19 0.9,0.88 0.08,3 0.11,3 -2.87,3.01 -2.71,0.02 -5.42,0 -8.13,0.07 -0.83,0.02 -1.11,-0.19 -1.1,-1.06 0.04,-3.08 -0.01,-6.15 -0.03,-9.22 z"
   id="path253" />
					<path
   class="st16"
   d="m 2440.18,277.69 c 1.14,-2.72 2.15,-5.13 3.18,-7.54 0.32,-0.76 2.32,-1.32 2.99,-0.87 0.29,0.2 0.21,0.5 0.21,0.78 0.03,3.56 0.01,7.12 0.09,10.69 0.03,1.14 -0.71,0.82 -1.29,0.85 -0.6,0.03 -1.19,0.16 -1.17,-0.86 0.06,-2.24 0,-4.49 -0.23,-6.79 -0.87,2.19 -1.74,4.38 -2.61,6.56 -0.21,0.54 -0.25,1.15 -1.13,1.15 -0.87,0 -0.92,-0.58 -1.15,-1.13 -0.9,-2.17 -1.82,-4.34 -2.92,-6.46 0.01,2.21 -0.03,4.43 0.06,6.64 0.04,1.04 -0.53,0.98 -1.21,0.95 -0.61,-0.02 -1.27,0.21 -1.26,-0.9 0.04,-3.52 0,-7.04 -0.06,-10.57 -0.02,-0.79 0.3,-0.86 0.98,-0.95 1.43,-0.19 2.17,0.33 2.67,1.7 0.79,2.21 1.81,4.32 2.85,6.75 z"
   id="path254" />
					<path
   class="st16"
   d="m 2467.02,276.91 c -0.01,-2.21 0.02,-4.42 -0.06,-6.62 -0.04,-0.96 0.24,-1.25 1.2,-1.23 0.87,0.02 1.28,0.11 1.26,1.16 -0.06,3.27 0.03,6.55 0.01,9.83 0,0.47 0.42,1.33 -0.45,1.36 -0.83,0.03 -1.84,0.54 -2.5,-0.57 -1.33,-2.25 -2.74,-4.47 -4.11,-6.71 -0.12,-0.2 -0.27,-0.39 -0.41,-0.58 -0.45,0.23 -0.25,0.6 -0.25,0.87 -0.01,2.1 -0.02,4.21 0.04,6.31 0.03,0.95 -0.59,0.81 -1.12,0.77 -0.52,-0.04 -1.31,0.37 -1.31,-0.7 -0.01,-3.64 -0.04,-7.28 -0.07,-10.92 -0.01,-0.49 0.15,-0.7 0.69,-0.75 1.29,-0.11 2.24,0.08 2.94,1.43 1.15,2.21 2.57,4.28 3.88,6.41 0.09,-0.02 0.17,-0.04 0.26,-0.06 z"
   id="path255" />
					<path
   class="st16"
   d="m 2379.62,277.42 c -0.01,-2.25 0.03,-4.51 -0.07,-6.76 -0.04,-1.06 0.5,-1.05 1.26,-1.06 0.74,-0.01 1.18,0.04 1.17,1 -0.04,3.32 0.04,6.64 0.02,9.96 0,0.47 0.4,1.33 -0.43,1.38 -0.86,0.05 -1.88,0.52 -2.56,-0.68 -1.16,-2.08 -2.47,-4.07 -3.72,-6.1 -0.22,-0.36 -0.37,-0.78 -0.91,-1.12 0.02,2.36 -0.03,4.61 0.07,6.85 0.05,1.05 -0.4,1.15 -1.27,1.18 -0.89,0.03 -1.17,-0.2 -1.16,-1.13 0.04,-3.32 -0.04,-6.63 -0.02,-9.95 0.01,-0.44 -0.38,-1.25 0.43,-1.26 0.83,-0.01 1.85,-0.57 2.51,0.53 1.35,2.25 2.73,4.48 4.11,6.72 0.1,0.17 0.22,0.32 0.33,0.48 0.08,-0.01 0.16,-0.02 0.24,-0.04 z"
   id="path256" />
					<path
   class="st16"
   d="m 2486.65,281.56 c -3.49,0.02 -6,-2.61 -6.03,-6.32 -0.03,-3.7 2.57,-6.51 6.03,-6.51 3.45,0 6.07,2.83 6.05,6.51 -0.03,3.71 -2.52,6.31 -6.05,6.32 z m -3.44,-6.37 c 0.01,2.34 1.21,4.02 3.01,4.19 1.99,0.19 3.43,-1.01 3.83,-3.21 0.41,-2.23 -0.7,-4.56 -2.38,-5.04 -0.08,-0.03 -0.16,-0.03 -0.24,-0.04 -2.48,-0.49 -4.22,1.2 -4.22,4.1 z"
   id="path257" />
					<path
   class="st16"
   d="m 2401.28,282.08 c -3.56,0.03 -6.14,-2.64 -6.12,-6.36 0.01,-3.7 2.63,-6.49 6.09,-6.46 3.42,0.02 5.96,2.76 5.98,6.44 0.03,3.68 -2.46,6.35 -5.95,6.38 z m 3.36,-6.51 c -0.02,-0.22 -0.02,-0.59 -0.08,-0.95 -0.29,-1.84 -1.5,-3.02 -3.17,-3.11 -1.69,-0.09 -2.92,0.92 -3.45,2.76 -0.22,0.76 -0.23,1.52 -0.13,2.28 0.27,2.04 1.58,3.33 3.35,3.34 2.13,0.02 3.5,-1.61 3.48,-4.32 z"
   id="path258" />
					<path
   class="st16"
   d="m 2300.67,276.36 c -0.01,-1.74 0.01,-3.48 -0.05,-5.22 -0.02,-0.78 0.17,-1.11 1,-1.05 1.57,0.1 3.15,-0.14 4.72,0.1 2.89,0.45 4.26,1.76 4.84,4.61 0.71,3.49 -1.01,6.67 -4.16,7.45 -1.9,0.47 -3.86,0.17 -5.8,0.22 -0.64,0.01 -0.52,-0.5 -0.52,-0.88 -0.02,-1.74 -0.02,-3.49 -0.03,-5.23 z m 2.41,0 c 0.01,1.09 0.01,2.18 0.02,3.26 0,0.33 -0.01,0.64 0.4,0.78 1.18,0.44 3.67,-0.3 4.42,-1.32 0.97,-1.34 1.05,-4.04 0.15,-5.41 -1.1,-1.67 -2.8,-1.48 -4.46,-1.45 -0.53,0.01 -0.55,0.36 -0.54,0.75 0,1.13 0.01,2.26 0.01,3.39 z"
   id="path259" />
					<path
   class="st16"
   d="m 2331.02,282.3 c -0.81,-0.12 -2.09,0.46 -2.73,-0.2 -0.62,-0.65 -0.18,-1.93 -0.2,-2.93 -0.04,-2.67 0.01,-5.33 -0.08,-8 -0.04,-1.05 0.31,-1.31 1.29,-1.25 1.41,0.09 2.84,-0.09 4.23,0.09 3.77,0.49 5.82,3.41 5.12,7.16 -0.62,3.37 -2.59,5.05 -6,5.12 -0.48,0.01 -0.96,0 -1.63,0.01 z m -0.49,-6.16 c 0.01,1.09 0.01,2.18 0.02,3.28 0,0.36 -0.02,0.71 0.47,0.84 2.25,0.63 4.67,-0.75 5.02,-3.01 0.47,-3.06 -0.71,-5.49 -4.32,-5.23 -0.9,0.06 -1.33,0.19 -1.23,1.2 0.1,0.97 0.03,1.95 0.04,2.92 z"
   id="path260" />
					<path
   class="st16"
   d="m 2355.09,282.36 c -2.63,0.01 -4.2,-1.06 -4.55,-3.07 -0.1,-0.6 0.05,-0.83 0.65,-0.8 0.84,0.04 1.65,-0.22 2.13,0.97 0.45,1.13 2.85,1.12 3.61,0.13 0.61,-0.79 0.23,-1.41 -0.51,-1.77 -0.9,-0.43 -1.87,-0.73 -2.82,-1.07 -2.23,-0.8 -3.27,-2.22 -2.89,-3.98 0.45,-2.11 2.33,-3.46 4.6,-3.22 1.65,0.18 3.18,0.58 3.86,2.41 0.29,0.77 0.24,1.15 -0.69,1.08 -0.73,-0.05 -1.42,0.14 -1.95,-0.74 -0.54,-0.89 -2.16,-0.85 -2.94,-0.14 -0.69,0.63 -0.59,1.47 0.28,2 0.83,0.51 1.81,0.66 2.72,0.96 2.38,0.79 3.36,2.11 3.04,4.11 -0.3,1.84 -1.95,3.07 -4.18,3.12 -0.12,0.01 -0.24,0.01 -0.36,0.01 z"
   id="path261" />
					<path
   class="st16"
   d="m 2361.88,275.91 c -0.01,-1.78 0,-3.56 -0.04,-5.34 -0.01,-0.63 0.21,-0.85 0.84,-0.85 2.1,0.02 4.21,0.02 6.31,-0.04 0.92,-0.03 0.83,0.51 0.82,1.09 -0.01,0.54 0.17,1.16 -0.78,1.12 -1.21,-0.05 -2.43,0.03 -3.64,-0.01 -0.73,-0.02 -1.07,0.2 -0.97,0.96 0.03,0.24 0.03,0.49 0,0.73 -0.12,0.91 0.17,1.32 1.17,1.22 1.04,-0.1 2.11,0.03 3.15,-0.06 0.98,-0.09 0.89,0.5 0.91,1.12 0.03,0.69 -0.02,1.17 -0.94,1.11 -1.13,-0.07 -2.27,0.03 -3.4,-0.01 -0.7,-0.03 -0.88,0.23 -0.89,0.91 -0.03,2.02 -0.06,2.02 1.96,2.01 0.89,0 1.78,0.04 2.67,-0.03 0.79,-0.06 0.88,0.37 0.8,0.96 -0.08,0.5 0.38,1.3 -0.71,1.29 -2.14,-0.01 -4.29,0 -6.43,0.04 -0.67,0.01 -0.82,-0.27 -0.81,-0.87 0.02,-1.79 -0.01,-3.57 -0.02,-5.35 z"
   id="path262" />
					<path
   class="st16"
   d="m 2449.28,275.37 c -0.01,-1.78 0,-3.56 -0.05,-5.34 -0.02,-0.64 0.2,-0.85 0.83,-0.84 2.1,0.02 4.21,0.01 6.31,-0.04 0.91,-0.02 0.8,0.55 0.83,1.12 0.02,0.61 0.03,1.12 -0.85,1.08 -1.21,-0.05 -2.43,0.03 -3.64,0 -0.71,-0.02 -1.08,0.19 -0.99,0.96 0.03,0.28 0.04,0.57 0,0.85 -0.11,0.82 0.17,1.16 1.06,1.1 1.13,-0.09 2.27,0.03 3.4,-0.05 0.86,-0.06 0.92,0.37 0.88,1.02 -0.04,0.56 0.22,1.26 -0.82,1.2 -1.17,-0.06 -2.35,0.03 -3.52,-0.01 -0.74,-0.03 -1.06,0.24 -0.96,0.97 0.01,0.04 0,0.08 0,0.12 0.04,2.24 -0.2,1.79 1.76,1.82 0.93,0.01 1.86,0.05 2.79,-0.03 0.9,-0.08 0.96,0.38 0.96,1.08 0,0.73 -0.02,1.22 -1,1.19 -2.02,-0.06 -4.05,-0.02 -6.07,0.03 -0.68,0.01 -0.92,-0.18 -0.91,-0.88 0.04,-1.79 0,-3.57 -0.01,-5.35 z"
   id="path263" />
					<path
   class="st16"
   d="m 2340.92,276.02 c -0.01,-1.74 0,-3.48 -0.04,-5.22 -0.01,-0.63 0.09,-0.97 0.84,-0.95 2.06,0.03 4.12,0.02 6.19,-0.04 0.92,-0.03 0.8,0.55 0.81,1.11 0.01,0.58 0.09,1.13 -0.82,1.09 -1.21,-0.06 -2.43,0.02 -3.64,-0.01 -0.65,-0.01 -1,0.17 -0.92,0.89 0.04,0.36 0.05,0.73 0,1.09 -0.11,0.79 0.27,0.95 0.98,0.92 1.21,-0.06 2.43,0.01 3.64,-0.05 0.88,-0.05 0.76,0.52 0.73,1.03 -0.03,0.48 0.33,1.21 -0.69,1.18 -1.21,-0.03 -2.43,0.05 -3.64,0 -0.83,-0.04 -1.09,0.28 -0.99,1.05 0.04,0.32 0.05,0.65 0.01,0.97 -0.11,0.78 0.24,0.97 0.96,0.93 1.21,-0.06 2.43,0.02 3.64,-0.05 0.94,-0.05 0.8,0.56 0.79,1.1 -0.01,0.52 0.21,1.16 -0.75,1.15 -2.1,-0.03 -4.21,-0.01 -6.31,0.04 -0.71,0.02 -0.77,-0.33 -0.77,-0.89 0.02,-1.78 -0.01,-3.56 -0.02,-5.34 z"
   id="path264" />
					<path
   class="st16"
   d="m 2313.47,276.15 c -0.01,-1.74 0.01,-3.48 -0.04,-5.21 -0.02,-0.66 0.16,-0.94 0.87,-0.92 2.02,0.02 4.04,0.04 6.06,-0.05 0.98,-0.04 0.87,0.52 0.91,1.14 0.05,0.74 -0.12,1.11 -0.97,1.06 -1.13,-0.06 -2.27,0.03 -3.4,-0.01 -0.79,-0.03 -1.13,0.23 -1.02,1.04 0.04,0.32 0.04,0.65 0.01,0.97 -0.07,0.67 0.17,0.93 0.88,0.9 1.21,-0.06 2.43,0.03 3.63,-0.05 0.92,-0.07 0.85,0.46 0.84,1.05 -0.02,0.58 0.19,1.24 -0.84,1.17 -1.17,-0.08 -2.35,0.03 -3.52,-0.01 -0.72,-0.03 -0.98,0.17 -0.98,0.94 0.01,1.99 -0.03,1.99 1.98,1.98 0.77,0 1.53,-0.01 2.3,-0.01 1,0 1.59,1.05 1.11,1.95 -0.17,0.33 -0.47,0.26 -0.74,0.26 -2.06,0.02 -4.13,0.01 -6.19,0.06 -0.72,0.02 -0.88,-0.27 -0.87,-0.92 0.03,-1.77 0,-3.56 -0.02,-5.34 z"
   id="path265" />
					<path
   class="st16"
   d="m 2421.67,278 c 0.68,-2.43 1.37,-4.86 2.05,-7.29 0.34,-1.21 1.43,-1.77 2.6,-1.35 0.41,0.15 0.32,0.42 0.23,0.68 -1.18,3.72 -2.35,7.45 -3.56,11.16 -0.33,1.01 -1.26,0.41 -1.9,0.54 -0.5,0.11 -0.93,0 -1.13,-0.61 -1.2,-3.67 -2.42,-7.34 -3.65,-11 -0.18,-0.56 0,-0.69 0.54,-0.74 1.87,-0.17 1.93,-0.15 2.48,1.7 0.69,2.31 1.37,4.63 2.06,6.93 0.09,0 0.19,-0.02 0.28,-0.02 z"
   id="path266" />
					<path
   class="st16"
   d="m 2388.95,278.73 c 0.76,-2.74 1.41,-5.14 2.08,-7.54 0.5,-1.79 0.52,-1.79 2.39,-1.66 0.51,0.04 0.74,0.1 0.55,0.71 -1.19,3.68 -2.34,7.37 -3.49,11.06 -0.29,0.93 -1.02,0.6 -1.61,0.63 -0.57,0.02 -1.21,0.22 -1.49,-0.62 -1.18,-3.64 -2.39,-7.27 -3.6,-10.9 -0.2,-0.59 -0.08,-0.78 0.55,-0.83 1.86,-0.14 1.89,-0.14 2.42,1.64 0.7,2.38 1.4,4.77 2.2,7.51 z"
   id="path267" />
					<path
   class="st16"
   d="m 2394.99,221.5 c -1.42,-0.36 -2.3,0.11 -3.12,0.71 -1.12,0.8 -2.22,1.61 -3.52,2.11 -2.49,0.95 -5.06,0.41 -7.33,-1.67 2.58,1.09 4.86,0.69 7.15,-0.41 2.4,-1.16 4.89,-1.97 7.6,-1.11 0.29,0.09 0.55,-0.03 0.82,-0.11 1.81,-0.51 3.63,-0.42 5.36,0.24 2.52,0.97 4.94,2.26 7.84,1.78 -0.9,1.03 -2.06,1.34 -3.28,1.44 -2.22,0.17 -4.08,-0.8 -5.83,-2.04 -0.93,-0.66 -1.86,-1.34 -3.16,-1 0.06,0.55 0.58,0.6 0.91,0.79 1.27,0.73 2.46,1.56 3.54,2.54 0.26,0.24 0.8,0.4 0.25,0.91 -0.4,0.38 -0.66,0.44 -1.08,0.01 -1.17,-1.23 -2.46,-2.33 -3.86,-3.31 -0.92,-0.65 -1.65,-0.58 -2.52,0.02 -1.38,0.94 -2.64,2 -3.73,3.27 -0.29,0.33 -0.52,0.75 -1.05,0.24 -0.53,-0.51 -0.13,-0.77 0.19,-1.07 1.38,-1.27 2.92,-2.29 4.82,-3.34 z"
   id="path268" />
					<path
   class="st16"
   d="m 2474.55,276.25 c -0.01,-1.38 -0.05,-2.75 -0.02,-4.12 0.02,-0.67 -0.18,-0.98 -0.89,-0.9 -0.36,0.04 -0.74,-0.05 -1.09,0.02 -1.18,0.23 -1.33,-0.4 -1.28,-1.36 0.03,-0.64 0.25,-0.82 0.86,-0.82 2.43,0.01 4.85,0.02 7.27,-0.05 1,-0.03 0.83,0.58 0.87,1.18 0.04,0.68 -0.09,1.01 -0.9,1.03 -2.4,0.06 -2.4,0.09 -2.38,2.56 0.02,2.22 -0.03,4.45 0.06,6.67 0.05,1.15 -0.63,0.96 -1.3,0.98 -0.68,0.02 -1.27,0.1 -1.21,-0.94 0.09,-1.42 0.01,-2.84 0.01,-4.25 z"
   id="path269" />
					<path
   class="st16"
   d="m 2409.43,275.64 c -0.01,-1.78 0.03,-3.56 -0.05,-5.33 -0.04,-1 0.57,-0.89 1.17,-0.86 0.58,0.03 1.33,-0.3 1.31,0.83 -0.04,2.74 0.05,5.49 0.01,8.24 -0.02,0.87 0.27,1.13 1.11,1.06 0.84,-0.07 1.7,0.03 2.54,-0.05 0.85,-0.07 1.2,0.12 1.21,1.09 0.01,1.02 -0.37,1.21 -1.26,1.18 -1.58,-0.05 -3.16,-0.09 -4.72,0.04 -1.15,0.09 -1.35,-0.35 -1.31,-1.36 0.06,-1.61 0,-3.23 -0.01,-4.84 z"
   id="path270" />
					<path
   class="st16"
   d="m 2430.86,275.58 c 0.01,1.74 -0.04,3.48 0.05,5.22 0.05,0.97 -0.49,0.95 -1.13,0.9 -0.58,-0.04 -1.33,0.3 -1.33,-0.83 0.02,-3.56 0,-7.12 -0.06,-10.68 -0.02,-1.13 0.73,-0.8 1.31,-0.85 0.66,-0.06 1.17,-0.03 1.14,0.91 -0.06,1.76 0,3.54 0.02,5.33 z"
   id="path271" />
					<path
   class="st16"
   d="m 2380.27,217 c -1.1,-1.82 -1.3,-3.87 -1.62,-6.17 2.6,2.44 2.33,6.12 4.71,8.54 -4.09,-0.17 -7.43,-1.35 -9.61,-4.83 -0.11,-0.19 -0.56,-0.36 -0.17,-0.67 0.25,-0.19 0.46,0.07 0.62,0.2 1.76,1.4 3.92,2.06 5.83,3.18 0.11,0.06 0.16,0.33 0.33,0.15 0.05,-0.04 -0.06,-0.26 -0.09,-0.4 z"
   id="path272" />
					<path
   class="st16"
   d="m 2412.79,210.89 c 0.14,2.09 -0.2,4.06 -1.23,5.97 2.17,-1.1 4.39,-2.01 6.41,-3.55 -0.11,2.69 -4.28,5.24 -9.32,5.77 2.12,-2.49 1.97,-5.86 4.14,-8.19 z"
   id="path273" />
					<path
   class="st16"
   d="m 2385.42,220.34 c -1.91,-1.16 -2.38,-3.2 -3.5,-5.01 2.82,1.77 4.4,4.98 8.19,5.45 -2.07,0.47 -3.83,0.95 -5.63,1.26 -2.76,0.49 -5.76,-0.8 -7.5,-3.28 2.72,1.82 5.62,1.31 8.44,1.58 z"
   id="path274" />
					<path
   class="st16"
   d="m 2420.6,205.29 c 0.26,4.26 -2.86,7.33 -7.26,9.53 1.21,-3.18 0.56,-6.5 1.68,-9.59 0.36,2.12 1.19,4.17 0.67,6.45 1.5,-2.17 3.93,-3.54 4.91,-6.39 z"
   id="path275" />
					<path
   class="st16"
   d="m 2376.14,212.2 c -0.34,-1.71 -0.21,-3.33 0.23,-4.94 0.07,-0.27 -0.11,-0.77 0.35,-0.77 0.41,-0.01 0.39,0.45 0.42,0.75 0.22,1.76 0.41,3.53 0.64,5.29 0.13,0.99 0.32,1.97 0.8,2.9 -3.54,-2.1 -7.32,-3.97 -7.43,-8.92 1.16,2.34 3.44,3.66 4.99,5.69 z"
   id="path276" />
					<path
   class="st16"
   d="m 2406.49,220.07 c 2.6,-0.14 5.15,-0.19 7.62,-0.91 -3.45,3.94 -7.6,2.48 -11.95,1.46 2.8,-0.49 4.2,-2.6 5.97,-4.2 0.24,-0.21 0.48,-0.6 0.8,-0.41 0.39,0.23 0.15,0.65 0.02,0.97 -0.5,1.26 -1.35,2.25 -2.46,3.09 z"
   id="path277" />
					<path
   class="st16"
   d="m 2417.79,202.59 c -0.4,-1.41 -1.36,-2.66 -2.33,-3.9 -0.95,-1.21 -1.77,-2.48 -2.09,-4.37 1.45,1.56 3.1,2.47 4.04,4.18 -0.11,-2.25 0.7,-4.46 0.11,-6.69 3,3.53 1.57,7.21 0.27,10.78 z"
   id="path278" />
					<path
   class="st16"
   d="m 2420.11,199.14 c 1.03,2.86 0.25,6.04 -3.43,10.02 0.21,-3.42 -1.9,-6.34 -1.79,-9.84 0.97,2.01 2.56,3.6 2.86,5.89 0.72,-2.06 1.84,-3.94 2.36,-6.07 z"
   id="path279" />
					<path
   class="st16"
   d="m 2371.48,199.33 c 0.39,2.44 1.85,4.32 2.47,6.61 0.33,-2.19 1.52,-3.94 2.68,-5.95 0.11,1.78 -0.34,3.3 -0.72,4.81 -0.38,1.52 -1.06,2.97 -0.82,4.68 -3.25,-2.82 -4.76,-6.45 -3.61,-10.15 z"
   id="path280" />
					<path
   class="st16"
   d="m 2373.47,193.05 c 0.01,2.3 0.63,4.36 0.55,6.52 0.86,-1.57 2.04,-2.77 3.52,-3.74 -0.3,2.9 -3.07,4.6 -3.61,7.43 -2.07,-5.98 -2.2,-8.17 -0.46,-10.21 z"
   id="path281" />
					<path
   class="st16"
   d="m 2415.64,193.65 c -0.37,-1.64 -0.51,-3.32 -1.38,-4.82 2.05,0.1 2.87,2.59 2.65,8.12 -1.53,-2.07 -3.9,-3.1 -5.18,-5.25 -0.13,-0.21 -0.56,-0.39 -0.28,-0.69 0.3,-0.33 0.59,0.01 0.84,0.19 1.12,0.76 2.27,1.5 3.35,2.45 z"
   id="path282" />
					<path
   class="st16"
   d="m 2374.53,197.53 c 0.21,-2.93 -0.97,-5.97 2.09,-8.02 -0.32,1.53 -0.64,3.05 -0.97,4.58 1.44,-1.34 3.37,-2.04 4.54,-3.82 -0.49,3.54 -3.98,4.55 -5.66,7.26 z"
   id="path283" />
					<path
   class="st16"
   d="m 2434.01,286.51 c 0.74,-1.21 1.41,-2.3 2.07,-3.38 0.16,-0.27 0.42,-0.34 0.72,-0.34 0.96,0 1.91,-0.01 3.27,-0.02 -1.36,1.34 -2.42,2.46 -3.57,3.49 -0.66,0.57 -1.53,0.19 -2.49,0.25 z"
   id="path284" />
					<path
   class="st16"
   d="m 2414.27,191.62 c -2.09,-1.27 -3.39,-3.29 -4.83,-5.16 1.99,-0.49 4.67,2.38 4.82,5.17 z"
   id="path285" />
					<path
   class="st16"
   d="m 2381.56,186.82 c -1.28,2.09 -2.51,4.02 -4.52,5.28 -0.01,-2.3 1.93,-5.05 4.52,-5.28 z"
   id="path286" />
					<path
   class="st16"
   d="m 2378.61,210.62 c -0.02,0.03 -0.04,0.06 -0.06,0.09 -0.01,-0.03 -0.04,-0.07 -0.03,-0.11 0,-0.03 0.04,-0.05 0.06,-0.09 0,0.04 0.02,0.07 0.03,0.11 z"
   id="path287" />
					<path
   class="st16"
   d="m 2414.25,191.64 c 0.04,0.02 0.08,0.05 0.13,0.08 -0.02,0 -0.05,0 -0.06,-0.01 -0.03,-0.02 -0.04,-0.06 -0.06,-0.09 z"
   id="path288" />
					<g
   id="g305">
						<path
   class="st17"
   d="m 2446.99,245.05 c 0.38,-0.65 0.84,-1.25 1.37,-1.78 l -4.55,-4.94 c -1.13,1.1 -2.1,2.36 -2.86,3.76 z"
   id="path289" />
						<path
   class="st18"
   d="m 2458.06,241.47 c 0.69,0.31 1.33,0.71 1.9,1.18 l 4.51,-4.98 c -1.2,-1.02 -2.56,-1.86 -4.04,-2.49 z"
   id="path290" />
						<path
   class="st19"
   d="m 2468.46,242.9 -6,3.03 c 0.29,0.67 0.5,1.38 0.61,2.12 l 6.68,-0.67 c -0.19,-1.58 -0.64,-3.08 -1.29,-4.48"
   id="path291" />
						<path
   class="st20"
   d="m 2462.03,245.07 6,-3.03 c -0.75,-1.38 -1.71,-2.63 -2.83,-3.71 l -4.51,4.98 c 0.51,0.52 0.97,1.11 1.34,1.76"
   id="path292" />
						<path
   class="st20"
   d="m 2445.82,249.44 c 0,-0.14 0,-0.27 0.01,-0.41 l -6.69,-0.56 c -0.02,0.33 -0.03,0.67 -0.03,1 0.01,1.28 0.18,2.53 0.48,3.72 l 6.45,-1.89 c -0.14,-0.59 -0.22,-1.22 -0.22,-1.86"
   id="path293" />
						<path
   class="st18"
   d="m 2461.24,254.85 c -0.47,0.58 -1.02,1.1 -1.62,1.54 l 3.57,5.7 c 1.31,-0.9 2.47,-1.99 3.44,-3.24 z"
   id="path294" />
						<path
   class="st21"
   d="m 2463.18,249.34 c 0.01,0.63 -0.06,1.25 -0.19,1.85 l 6.47,1.81 c 0.29,-1.19 0.44,-2.42 0.43,-3.7 0,-0.32 -0.02,-0.63 -0.04,-0.95 l -6.69,0.67 c 0.02,0.11 0.02,0.21 0.02,0.32"
   id="path295" />
						<path
   class="st18"
   d="m 2447.93,255.06 -5.33,4.1 c 1,1.22 2.19,2.28 3.51,3.15 l 3.5,-5.74 c -0.62,-0.43 -1.18,-0.94 -1.68,-1.51"
   id="path296" />
						<path
   class="st22"
   d="m 2445.92,248.07 c 0.12,-0.76 0.33,-1.48 0.63,-2.16 l -6.03,-2.96 c -0.65,1.42 -1.1,2.95 -1.3,4.56 z"
   id="path297" />
						<path
   class="st21"
   d="m 2462.37,262.62 -3.57,-5.69 c -0.64,0.37 -1.33,0.66 -2.05,0.85 l 1.29,6.6 c 1.55,-0.37 3,-0.97 4.33,-1.76"
   id="path298" />
						<path
   class="st23"
   d="m 2462.74,252.12 c -0.23,0.69 -0.54,1.34 -0.93,1.94 l 5.39,4.01 c 0.86,-1.26 1.55,-2.65 2.01,-4.14 z"
   id="path299" />
						<path
   class="st19"
   d="m 2455.8,257.97 c -0.41,0.06 -0.83,0.1 -1.25,0.1 -0.34,0 -0.68,-0.02 -1.01,-0.05 l -1.2,6.61 c 0.74,0.1 1.49,0.16 2.25,0.15 0.85,0 1.68,-0.08 2.5,-0.22 z"
   id="path300" />
						<path
   class="st24"
   d="m 2455,240.72 c 0.75,0.04 1.47,0.18 2.15,0.4 l 2.38,-6.29 c -1.44,-0.5 -2.98,-0.79 -4.57,-0.84 z"
   id="path301" />
						<path
   class="st24"
   d="m 2452.58,257.86 c -0.75,-0.17 -1.47,-0.44 -2.13,-0.8 l -3.5,5.74 c 1.36,0.77 2.86,1.34 4.43,1.66 z"
   id="path302" />
						<path
   class="st25"
   d="m 2451.84,241.12 c 0.7,-0.22 1.43,-0.36 2.19,-0.4 l -0.04,-6.72 c -1.61,0.05 -3.16,0.36 -4.62,0.87 z"
   id="path303" />
						<path
   class="st19"
   d="m 2447.34,254.29 c -0.43,-0.63 -0.78,-1.31 -1.03,-2.04 l -6.45,1.89 c 0.5,1.54 1.23,2.97 2.16,4.25 z"
   id="path304" />
						<path
   class="st22"
   d="m 2449.08,242.62 c 0.56,-0.46 1.19,-0.84 1.85,-1.14 l -2.47,-6.25 c -1.44,0.62 -2.77,1.45 -3.95,2.45 z"
   id="path305" />
					</g>
				</g>
			</g>
		</g>
	</g>
	<g
   id="g314">
		<g
   id="g313">
			<rect
   x="56.049999"
   y="379.75"
   class="st4"
   width="637.92999"
   height="41.540001"
   id="rect309" />
			<g
   id="g312">
				<rect
   x="56.049999"
   y="289.56"
   class="st4"
   width="637.92999"
   height="41.540001"
   id="rect310" />
				<rect
   x="56.049999"
   y="334.66"
   class="st4"
   width="637.92999"
   height="41.540001"
   id="rect311" />
				<rect
   x="56.049999"
   y="424.84"
   class="st4"
   width="637.92999"
   height="41.540001"
   id="rect312" />
			</g>
		</g>
	</g>
	<g
   id="g382">
		<rect
   x="82.07"
   y="297.64999"
   class="st26"
   width="526.42999"
   height="187.63"
   id="rect314" />
		<path
   class="st3"
   d="m 88.69,301.22 h -6.65 v -2.4 h 16.18 v 2.4 h -6.68 v 19.46 h -2.85 z"
   id="path314" />
		<path
   class="st3"
   d="m 112.78,310.43 h -8.5 v 7.88 h 9.47 v 2.37 h -12.29 v -21.85 h 11.8 v 2.37 h -8.98 v 6.91 h 8.5 z"
   id="path315" />
		<path
   class="st3"
   d="m 118.23,299.11 c 1.43,-0.29 3.47,-0.45 5.42,-0.45 3.02,0 4.96,0.55 6.32,1.78 1.1,0.97 1.72,2.46 1.72,4.15 0,2.89 -1.82,4.8 -4.12,5.58 v 0.1 c 1.69,0.58 2.69,2.14 3.21,4.41 0.71,3.05 1.23,5.16 1.69,6 h -2.92 c -0.36,-0.62 -0.84,-2.5 -1.46,-5.22 -0.65,-3.02 -1.82,-4.15 -4.38,-4.25 h -2.66 v 9.47 h -2.82 z m 2.82,9.96 h 2.89 c 3.02,0 4.93,-1.65 4.93,-4.15 0,-2.82 -2.04,-4.05 -5.03,-4.09 -1.36,0 -2.33,0.13 -2.79,0.26 z"
   id="path316" />
		<path
   class="st3"
   d="m 136.49,299.11 c 1.43,-0.29 3.47,-0.45 5.42,-0.45 3.02,0 4.96,0.55 6.32,1.78 1.1,0.97 1.72,2.46 1.72,4.15 0,2.89 -1.82,4.8 -4.12,5.58 v 0.1 c 1.69,0.58 2.69,2.14 3.21,4.41 0.71,3.05 1.23,5.16 1.69,6 h -2.92 c -0.36,-0.62 -0.84,-2.5 -1.46,-5.22 -0.65,-3.02 -1.82,-4.15 -4.38,-4.25 h -2.66 v 9.47 h -2.82 z m 2.82,9.96 h 2.89 c 3.02,0 4.93,-1.65 4.93,-4.15 0,-2.82 -2.04,-4.05 -5.03,-4.09 -1.36,0 -2.33,0.13 -2.79,0.26 z"
   id="path317" />
		<path
   class="st3"
   d="m 158.44,313.8 -2.27,6.87 h -2.92 l 7.43,-21.85 h 3.4 l 7.46,21.85 h -3.02 l -2.33,-6.87 z m 7.17,-2.2 -2.14,-6.29 c -0.49,-1.43 -0.81,-2.72 -1.13,-3.99 h -0.06 c -0.32,1.3 -0.68,2.63 -1.1,3.96 l -2.14,6.32 z"
   id="path318" />
		<path
   class="st3"
   d="m 186.07,298.82 v 21.85 h -2.82 v -21.85 z"
   id="path319" />
		<path
   class="st3"
   d="m 191.81,320.68 v -21.85 h 3.08 l 7,11.06 c 1.62,2.56 2.89,4.86 3.92,7.1 l 0.06,-0.03 c -0.26,-2.92 -0.32,-5.58 -0.32,-8.98 v -9.14 h 2.66 v 21.85 h -2.85 l -6.94,-11.09 c -1.52,-2.43 -2.98,-4.93 -4.09,-7.3 l -0.1,0.03 c 0.16,2.76 0.23,5.38 0.23,9.01 v 9.34 z"
   id="path320" />
		<path
   class="st3"
   d="m 213.57,317.24 c 1.26,0.78 3.11,1.43 5.06,1.43 2.89,0 4.57,-1.52 4.57,-3.73 0,-2.04 -1.17,-3.21 -4.12,-4.34 -3.57,-1.26 -5.77,-3.11 -5.77,-6.19 0,-3.4 2.82,-5.93 7.07,-5.93 2.24,0 3.86,0.52 4.83,1.07 l -0.78,2.3 c -0.71,-0.39 -2.17,-1.04 -4.15,-1.04 -2.98,0 -4.12,1.78 -4.12,3.27 0,2.04 1.33,3.05 4.34,4.22 3.7,1.43 5.58,3.21 5.58,6.42 0,3.37 -2.5,6.29 -7.65,6.29 -2.11,0 -4.41,-0.62 -5.58,-1.39 z"
   id="path321" />
		<path
   class="st3"
   d="m 230.76,299.08 c 1.36,-0.23 3.15,-0.42 5.42,-0.42 2.79,0 4.83,0.65 6.13,1.82 1.2,1.04 1.91,2.63 1.91,4.57 0,1.98 -0.58,3.53 -1.69,4.67 -1.49,1.59 -3.92,2.4 -6.68,2.4 -0.84,0 -1.62,-0.03 -2.27,-0.19 v 8.75 h -2.82 z m 2.82,10.54 c 0.62,0.16 1.39,0.23 2.33,0.23 3.4,0 5.48,-1.65 5.48,-4.67 0,-2.89 -2.04,-4.28 -5.16,-4.28 -1.23,0 -2.17,0.1 -2.66,0.23 v 8.49 z"
   id="path322" />
		<path
   class="st3"
   d="m 251.64,298.82 v 21.85 h -2.82 v -21.85 z"
   id="path323" />
		<path
   class="st3"
   d="m 257.38,299.11 c 1.43,-0.29 3.47,-0.45 5.42,-0.45 3.02,0 4.96,0.55 6.32,1.78 1.1,0.97 1.72,2.46 1.72,4.15 0,2.89 -1.82,4.8 -4.12,5.58 v 0.1 c 1.69,0.58 2.69,2.14 3.21,4.41 0.71,3.05 1.23,5.16 1.69,6 h -2.92 c -0.36,-0.62 -0.84,-2.5 -1.46,-5.22 -0.65,-3.02 -1.82,-4.15 -4.38,-4.25 h -2.66 v 9.47 h -2.82 z m 2.82,9.96 h 2.89 c 3.02,0 4.93,-1.65 4.93,-4.15 0,-2.82 -2.04,-4.05 -5.03,-4.09 -1.36,0 -2.33,0.13 -2.79,0.26 z"
   id="path324" />
		<path
   class="st3"
   d="m 279.34,313.8 -2.27,6.87 h -2.92 l 7.43,-21.85 h 3.4 l 7.46,21.85 h -3.02 l -2.33,-6.87 z m 7.16,-2.2 -2.14,-6.29 c -0.49,-1.43 -0.81,-2.72 -1.13,-3.99 h -0.06 c -0.32,1.3 -0.68,2.63 -1.1,3.96 l -2.14,6.32 z"
   id="path325" />
		<path
   class="st3"
   d="m 311.24,319.96 c -1.04,0.52 -3.08,1.04 -5.74,1.04 l -0.75,1.3 c 1.2,0.23 2.27,1.1 2.27,2.43 0,1.88 -1.65,2.63 -3.34,2.63 -0.84,0 -1.75,-0.23 -2.3,-0.55 l 0.45,-1.46 c 0.49,0.26 1.1,0.42 1.82,0.42 0.75,0 1.36,-0.29 1.36,-0.97 0,-0.88 -1,-1.23 -2.53,-1.39 l 1.36,-2.5 c -5.35,-0.65 -9.18,-4.44 -9.18,-10.96 0,-6.84 4.64,-11.48 11.41,-11.48 2.72,0 4.44,0.58 5.19,0.97 l -0.68,2.3 c -1.07,-0.52 -2.59,-0.91 -4.41,-0.91 -5.12,0 -8.53,3.27 -8.53,9.01 0,5.35 3.08,8.79 8.4,8.79 1.72,0 3.47,-0.36 4.6,-0.91 z"
   id="path326" />
		<path
   class="st3"
   d="m 319.26,313.8 -2.27,6.87 h -2.92 l 7.43,-21.85 h 3.4 l 7.46,21.85 h -3.02 l -2.33,-6.87 z m 0,-16.31 c -0.03,-1.98 0.81,-3.31 2.21,-3.31 0.71,0 1.26,0.29 1.95,0.65 0.52,0.29 1.04,0.58 1.52,0.58 0.52,0 0.81,-0.23 0.88,-1.26 h 1.52 c 0.03,2.04 -0.68,3.15 -2.2,3.15 -0.68,0 -1.26,-0.26 -1.98,-0.62 -0.62,-0.32 -1.04,-0.62 -1.52,-0.62 -0.52,0 -0.75,0.55 -0.84,1.43 z m 7.16,14.11 -2.14,-6.29 c -0.49,-1.43 -0.81,-2.72 -1.13,-3.99 h -0.06 c -0.32,1.3 -0.68,2.63 -1.1,3.96 l -2.14,6.32 z"
   id="path327" />
		<path
   class="st3"
   d="m 354.57,309.52 c 0,7.52 -4.57,11.51 -10.15,11.51 -5.77,0 -9.82,-4.47 -9.82,-11.09 0,-6.94 4.31,-11.48 10.15,-11.48 5.96,0.01 9.82,4.58 9.82,11.06 z m -16.96,0.36 c 0,4.67 2.53,8.85 6.97,8.85 4.47,0 7,-4.12 7,-9.08 0,-4.35 -2.27,-8.88 -6.97,-8.88 -4.66,0 -7,4.31 -7,9.11 z"
   id="path328" />
		<path
   class="st3"
   d="m 358.27,307.58 c 0,-1.2 0.81,-2.04 1.95,-2.04 1.13,0 1.88,0.84 1.91,2.04 0,1.13 -0.75,2.01 -1.95,2.01 -1.13,0 -1.91,-0.88 -1.91,-2.01 z m 0,11.44 c 0,-1.2 0.81,-2.04 1.95,-2.04 1.13,0 1.88,0.84 1.91,2.04 0,1.14 -0.75,2.01 -1.95,2.01 -1.13,0 -1.91,-0.87 -1.91,-2.01 z"
   id="path329" />
		<path
   class="st3"
   d="m 87.36,344.22 v 21.85 h -2.82 v -21.85 z"
   id="path330" />
		<path
   class="st3"
   d="m 93.1,366.08 v -21.85 h 3.08 l 7,11.06 c 1.62,2.56 2.89,4.86 3.92,7.1 l 0.06,-0.03 c -0.26,-2.92 -0.32,-5.58 -0.32,-8.98 v -9.14 h 2.66 v 21.85 h -2.85 L 99.71,355 c -1.52,-2.43 -2.98,-4.93 -4.09,-7.3 l -0.1,0.03 c 0.16,2.76 0.23,5.38 0.23,9.01 v 9.34 z"
   id="path331" />
		<path
   class="st3"
   d="m 133.92,354.92 c 0,7.52 -4.57,11.51 -10.15,11.51 -5.77,0 -9.82,-4.47 -9.82,-11.09 0,-6.94 4.31,-11.48 10.15,-11.48 5.97,0.01 9.82,4.58 9.82,11.06 z m -16.95,0.36 c 0,4.67 2.53,8.85 6.97,8.85 4.47,0 7,-4.12 7,-9.08 0,-4.35 -2.27,-8.88 -6.97,-8.88 -4.67,0 -7,4.31 -7,9.11 z"
   id="path332" />
		<path
   class="st3"
   d="m 143.2,366.08 -7.13,-21.85 h 3.05 l 3.4,10.77 c 0.94,2.95 1.75,5.61 2.33,8.17 h 0.06 c 0.62,-2.53 1.52,-5.29 2.5,-8.14 l 3.7,-10.8 h 3.02 l -7.81,21.85 z"
   id="path333" />
		<path
   class="st3"
   d="m 158.99,359.2 -2.27,6.87 h -2.92 l 7.43,-21.85 h 3.4 l 7.46,21.85 h -3.02 l -2.33,-6.87 z m 7.17,-2.2 -2.14,-6.29 c -0.49,-1.43 -0.81,-2.72 -1.13,-3.99 h -0.06 c -0.32,1.3 -0.68,2.63 -1.1,3.96 l -2.14,6.32 z"
   id="path334" />
		<path
   class="st3"
   d="m 190.9,365.36 c -1.04,0.52 -3.08,1.04 -5.74,1.04 l -0.75,1.3 c 1.2,0.23 2.27,1.1 2.27,2.43 0,1.88 -1.65,2.63 -3.34,2.63 -0.84,0 -1.75,-0.23 -2.3,-0.55 l 0.45,-1.46 c 0.49,0.26 1.1,0.42 1.82,0.42 0.75,0 1.36,-0.29 1.36,-0.97 0,-0.88 -1,-1.23 -2.53,-1.39 l 1.36,-2.5 c -5.35,-0.65 -9.18,-4.44 -9.18,-10.96 0,-6.84 4.64,-11.48 11.41,-11.48 2.72,0 4.44,0.58 5.19,0.97 l -0.68,2.3 c -1.07,-0.52 -2.59,-0.91 -4.41,-0.91 -5.12,0 -8.53,3.27 -8.53,9.01 0,5.35 3.08,8.79 8.4,8.79 1.72,0 3.47,-0.36 4.6,-0.91 z"
   id="path335" />
		<path
   class="st3"
   d="m 213.25,354.92 c 0,7.52 -4.57,11.51 -10.15,11.51 -5.77,0 -9.82,-4.47 -9.82,-11.09 0,-6.94 4.31,-11.48 10.15,-11.48 5.96,0.01 9.82,4.58 9.82,11.06 z m -16.96,0.36 c 0,4.67 2.53,8.85 6.97,8.85 4.47,0 7,-4.12 7,-9.08 0,-4.35 -2.27,-8.88 -6.97,-8.88 -4.67,0 -7,4.31 -7,9.11 z m 2.95,-12.45 c -0.06,-1.98 0.78,-3.31 2.21,-3.31 0.71,0 1.23,0.26 1.91,0.65 0.52,0.29 1.04,0.58 1.56,0.58 0.49,0 0.78,-0.23 0.88,-1.26 h 1.49 c 0.03,2.04 -0.68,3.15 -2.17,3.15 -0.68,0 -1.26,-0.26 -1.98,-0.62 -0.62,-0.32 -1.07,-0.62 -1.52,-0.62 -0.52,0 -0.78,0.55 -0.84,1.43 z"
   id="path336" />
		<path
   class="st3"
   d="m 229.04,355.83 h -8.5 v 7.88 h 9.47 v 2.37 h -12.29 v -21.85 h 11.8 v 2.37 h -8.98 v 6.91 h 8.5 z"
   id="path337" />
		<path
   class="st3"
   d="m 234.1,362.64 c 1.26,0.78 3.11,1.43 5.06,1.43 2.89,0 4.57,-1.52 4.57,-3.73 0,-2.04 -1.17,-3.21 -4.12,-4.34 -3.57,-1.26 -5.77,-3.11 -5.77,-6.19 0,-3.4 2.82,-5.93 7.07,-5.93 2.24,0 3.86,0.52 4.83,1.07 l -0.78,2.3 c -0.71,-0.39 -2.17,-1.04 -4.15,-1.04 -2.98,0 -4.12,1.78 -4.12,3.27 0,2.04 1.33,3.05 4.35,4.22 3.7,1.43 5.58,3.21 5.58,6.42 0,3.37 -2.5,6.29 -7.65,6.29 -2.11,0 -4.41,-0.62 -5.58,-1.39 z"
   id="path338" />
		<path
   class="st3"
   d="m 270.29,355.83 h -8.5 v 7.88 h 9.47 v 2.37 h -12.29 v -21.85 h 11.8 v 2.37 h -8.98 v 6.91 h 8.5 z"
   id="path339" />
		<path
   class="st3"
   d="m 294.15,356.48 c -0.16,-3.05 -0.36,-6.71 -0.32,-9.44 h -0.1 c -0.75,2.56 -1.65,5.29 -2.76,8.3 l -3.86,10.6 h -2.14 l -3.53,-10.41 c -1.04,-3.08 -1.91,-5.9 -2.53,-8.5 h -0.06 c -0.06,2.72 -0.23,6.39 -0.42,9.66 l -0.58,9.37 h -2.69 l 1.52,-21.85 h 3.6 l 3.73,10.57 c 0.91,2.69 1.65,5.09 2.21,7.36 h 0.1 c 0.55,-2.21 1.33,-4.6 2.3,-7.36 l 3.89,-10.57 h 3.6 l 1.36,21.85 h -2.76 z"
   id="path340" />
		<path
   class="st3"
   d="m 302.62,344.48 c 1.36,-0.23 3.15,-0.42 5.42,-0.42 2.79,0 4.83,0.65 6.13,1.82 1.2,1.04 1.91,2.63 1.91,4.57 0,1.98 -0.58,3.53 -1.69,4.67 -1.49,1.59 -3.92,2.4 -6.68,2.4 -0.84,0 -1.62,-0.03 -2.27,-0.19 v 8.75 h -2.82 z m 2.82,10.54 c 0.62,0.16 1.39,0.23 2.33,0.23 3.4,0 5.48,-1.65 5.48,-4.67 0,-2.89 -2.04,-4.28 -5.16,-4.28 -1.23,0 -2.17,0.1 -2.66,0.23 v 8.49 z"
   id="path341" />
		<path
   class="st3"
   d="m 320.68,344.51 c 1.43,-0.29 3.47,-0.45 5.42,-0.45 3.02,0 4.96,0.55 6.32,1.78 1.1,0.97 1.72,2.46 1.72,4.15 0,2.89 -1.82,4.8 -4.12,5.58 v 0.1 c 1.69,0.58 2.69,2.14 3.21,4.41 0.71,3.05 1.23,5.16 1.69,6 H 332 c -0.36,-0.62 -0.84,-2.5 -1.46,-5.22 -0.65,-3.02 -1.82,-4.15 -4.38,-4.25 h -2.66 v 9.47 h -2.82 z m 2.82,9.96 h 2.89 c 3.02,0 4.93,-1.65 4.93,-4.15 0,-2.82 -2.04,-4.05 -5.03,-4.09 -1.36,0 -2.33,0.13 -2.79,0.26 z"
   id="path342" />
		<path
   class="st3"
   d="m 350.26,355.83 h -8.5 v 7.88 h 9.47 v 2.37 h -12.29 v -21.85 h 11.8 v 2.37 h -8.98 v 6.91 h 8.5 z"
   id="path343" />
		<path
   class="st3"
   d="m 367.02,355.83 h -8.5 v 7.88 H 368 v 2.37 h -12.29 v -21.85 h 11.8 v 2.37 h -8.98 v 6.91 h 8.5 v 2.32 z"
   id="path344" />
		<path
   class="st3"
   d="m 372.47,366.08 v -21.85 h 3.08 l 7,11.06 c 1.62,2.56 2.89,4.86 3.92,7.1 l 0.06,-0.03 c -0.26,-2.92 -0.32,-5.58 -0.32,-8.98 v -9.14 h 2.66 v 21.85 h -2.85 L 379.08,355 c -1.52,-2.43 -2.98,-4.93 -4.09,-7.3 l -0.1,0.03 c 0.16,2.76 0.23,5.38 0.23,9.01 v 9.34 z"
   id="path345" />
		<path
   class="st3"
   d="m 394.62,344.51 c 1.72,-0.26 3.76,-0.45 6,-0.45 4.05,0 6.94,0.94 8.85,2.72 1.95,1.78 3.08,4.31 3.08,7.85 0,3.57 -1.1,6.48 -3.15,8.5 -2.04,2.04 -5.42,3.15 -9.66,3.15 -2.01,0 -3.7,-0.1 -5.12,-0.26 z m 2.82,19.33 c 0.71,0.13 1.75,0.16 2.85,0.16 6.03,0 9.31,-3.37 9.31,-9.27 0.03,-5.16 -2.89,-8.43 -8.85,-8.43 -1.46,0 -2.56,0.13 -3.31,0.29 z"
   id="path346" />
		<path
   class="st3"
   d="m 428.34,355.83 h -8.5 v 7.88 h 9.47 v 2.37 h -12.29 v -21.85 h 11.8 v 2.37 h -8.98 v 6.91 h 8.5 z"
   id="path347" />
		<path
   class="st3"
   d="m 433.79,344.51 c 1.72,-0.26 3.76,-0.45 6,-0.45 4.05,0 6.94,0.94 8.85,2.72 1.95,1.78 3.08,4.31 3.08,7.85 0,3.57 -1.1,6.48 -3.15,8.5 -2.04,2.04 -5.42,3.15 -9.66,3.15 -2.01,0 -3.7,-0.1 -5.12,-0.26 z m 2.82,19.33 c 0.71,0.13 1.75,0.16 2.85,0.16 6.03,0 9.31,-3.37 9.31,-9.27 0.03,-5.16 -2.89,-8.43 -8.85,-8.43 -1.46,0 -2.56,0.13 -3.31,0.29 z"
   id="path348" />
		<path
   class="st3"
   d="m 474.88,354.92 c 0,7.52 -4.57,11.51 -10.15,11.51 -5.77,0 -9.82,-4.47 -9.82,-11.09 0,-6.94 4.31,-11.48 10.15,-11.48 5.96,0.01 9.82,4.58 9.82,11.06 z m -16.96,0.36 c 0,4.67 2.53,8.85 6.97,8.85 4.47,0 7,-4.12 7,-9.08 0,-4.35 -2.27,-8.88 -6.97,-8.88 -4.67,0 -7,4.31 -7,9.11 z"
   id="path349" />
		<path
   class="st3"
   d="m 479.36,344.51 c 1.43,-0.29 3.47,-0.45 5.42,-0.45 3.02,0 4.96,0.55 6.32,1.78 1.1,0.97 1.72,2.46 1.72,4.15 0,2.89 -1.82,4.8 -4.12,5.58 v 0.1 c 1.69,0.58 2.69,2.14 3.21,4.41 0.71,3.05 1.23,5.16 1.69,6 h -2.92 c -0.36,-0.62 -0.84,-2.5 -1.46,-5.22 -0.65,-3.02 -1.82,-4.15 -4.38,-4.25 h -2.66 v 9.47 h -2.82 z m 2.82,9.96 h 2.89 c 3.02,0 4.93,-1.65 4.93,-4.15 0,-2.82 -2.04,-4.05 -5.03,-4.09 -1.36,0 -2.33,0.13 -2.79,0.26 z"
   id="path350" />
		<path
   class="st3"
   d="m 501.31,359.2 -2.27,6.87 h -2.92 l 7.43,-21.85 h 3.4 l 7.46,21.85 h -3.02 l -2.33,-6.87 z m 7.17,-2.2 -2.14,-6.29 c -0.49,-1.43 -0.81,-2.72 -1.13,-3.99 h -0.06 c -0.32,1.3 -0.68,2.63 -1.1,3.96 l -2.14,6.32 z"
   id="path351" />
		<path
   class="st3"
   d="m 518.04,362.64 c 1.26,0.78 3.11,1.43 5.06,1.43 2.89,0 4.57,-1.52 4.57,-3.73 0,-2.04 -1.17,-3.21 -4.12,-4.34 -3.57,-1.26 -5.77,-3.11 -5.77,-6.19 0,-3.4 2.82,-5.93 7.07,-5.93 2.24,0 3.86,0.52 4.83,1.07 l -0.78,2.3 c -0.71,-0.39 -2.17,-1.04 -4.15,-1.04 -2.98,0 -4.12,1.78 -4.12,3.27 0,2.04 1.33,3.05 4.34,4.22 3.7,1.43 5.58,3.21 5.58,6.42 0,3.37 -2.5,6.29 -7.65,6.29 -2.11,0 -4.41,-0.62 -5.58,-1.39 z"
   id="path352" />
		<path
   class="st3"
   d="m 84.54,389.88 c 1.36,-0.23 3.15,-0.42 5.42,-0.42 2.79,0 4.83,0.65 6.13,1.82 1.2,1.04 1.91,2.63 1.91,4.57 0,1.98 -0.58,3.53 -1.69,4.67 -1.49,1.59 -3.92,2.4 -6.68,2.4 -0.84,0 -1.62,-0.03 -2.27,-0.19 v 8.75 h -2.82 z m 2.82,10.54 c 0.62,0.16 1.39,0.23 2.33,0.23 3.4,0 5.48,-1.65 5.48,-4.67 0,-2.89 -2.04,-4.28 -5.16,-4.28 -1.23,0 -2.17,0.1 -2.66,0.23 v 8.49 z"
   id="path353" />
		<path
   class="st3"
   d="m 103.41,404.6 -2.27,6.87 h -2.92 l 7.43,-21.85 h 3.4 l 7.46,21.85 h -3.02 l -2.33,-6.87 z m 7.17,-2.2 -2.14,-6.29 c -0.49,-1.43 -0.81,-2.72 -1.13,-3.99 h -0.06 c -0.32,1.3 -0.68,2.63 -1.1,3.96 l -2.14,6.32 z"
   id="path354" />
		<path
   class="st3"
   d="m 120.53,389.92 c 1.43,-0.29 3.47,-0.45 5.42,-0.45 3.02,0 4.96,0.55 6.32,1.78 1.1,0.97 1.72,2.46 1.72,4.15 0,2.89 -1.82,4.8 -4.12,5.58 v 0.1 c 1.69,0.58 2.69,2.14 3.21,4.41 0.71,3.05 1.23,5.16 1.69,6 h -2.92 c -0.36,-0.62 -0.84,-2.5 -1.46,-5.22 -0.65,-3.02 -1.82,-4.15 -4.38,-4.25 h -2.66 v 9.47 h -2.82 z m 2.82,9.95 h 2.89 c 3.02,0 4.93,-1.65 4.93,-4.15 0,-2.82 -2.04,-4.05 -5.03,-4.09 -1.36,0 -2.33,0.13 -2.79,0.26 z"
   id="path355" />
		<path
   class="st3"
   d="m 142.49,404.6 -2.27,6.87 h -2.92 l 7.43,-21.85 h 3.4 l 7.46,21.85 h -3.02 l -2.33,-6.87 z m 7.16,-2.2 -2.14,-6.29 c -0.49,-1.43 -0.81,-2.72 -1.13,-3.99 h -0.06 c -0.32,1.3 -0.68,2.63 -1.1,3.96 l -2.14,6.32 z"
   id="path356" />
		<path
   class="st3"
   d="m 167.3,389.92 c 1.43,-0.29 3.47,-0.45 5.42,-0.45 3.02,0 4.96,0.55 6.32,1.78 1.1,0.97 1.72,2.46 1.72,4.15 0,2.89 -1.82,4.8 -4.12,5.58 v 0.1 c 1.69,0.58 2.69,2.14 3.21,4.41 0.71,3.05 1.23,5.16 1.69,6 h -2.92 c -0.36,-0.62 -0.84,-2.5 -1.46,-5.22 -0.65,-3.02 -1.82,-4.15 -4.38,-4.25 h -2.66 v 9.47 h -2.82 z m 2.82,9.95 H 173 c 3.02,0 4.93,-1.65 4.93,-4.15 0,-2.82 -2.04,-4.05 -5.03,-4.09 -1.36,0 -2.33,0.13 -2.79,0.26 v 7.98 z"
   id="path357" />
		<path
   class="st3"
   d="m 196.87,401.23 h -8.5 v 7.88 h 9.47 v 2.37 h -12.29 v -21.85 h 11.8 V 392 h -8.98 v 6.91 h 8.5 z"
   id="path358" />
		<path
   class="st3"
   d="m 218.95,410.51 c -1.26,0.45 -3.76,1.2 -6.71,1.2 -3.31,0 -6.03,-0.84 -8.17,-2.89 -1.88,-1.82 -3.05,-4.73 -3.05,-8.14 0.03,-6.52 4.51,-11.28 11.83,-11.28 2.53,0 4.51,0.55 5.45,1.01 l -0.68,2.3 c -1.17,-0.52 -2.63,-0.94 -4.83,-0.94 -5.32,0 -8.79,3.31 -8.79,8.79 0,5.54 3.34,8.82 8.43,8.82 1.85,0 3.11,-0.26 3.76,-0.58 v -6.52 h -4.44 V 400 h 7.2 z"
   id="path359" />
		<path
   class="st3"
   d="m 235.4,401.23 h -8.5 v 7.88 h 9.47 v 2.37 h -12.29 v -21.85 h 11.8 V 392 h -8.98 v 6.91 h 8.5 z"
   id="path360" />
		<path
   class="st3"
   d="m 240.84,411.48 v -21.85 h 3.08 l 7,11.06 c 1.62,2.56 2.89,4.86 3.92,7.1 l 0.06,-0.03 c -0.26,-2.92 -0.32,-5.58 -0.32,-8.98 v -9.14 h 2.66 v 21.85 h -2.85 l -6.94,-11.09 c -1.52,-2.43 -2.98,-4.93 -4.09,-7.3 l -0.1,0.03 c 0.16,2.76 0.23,5.38 0.23,9.01 v 9.34 z"
   id="path361" />
		<path
   class="st3"
   d="m 274.31,401.23 h -8.5 v 7.88 h 9.47 v 2.37 h -12.29 v -21.85 h 11.8 V 392 h -8.98 v 6.91 h 8.5 z"
   id="path362" />
		<path
   class="st3"
   d="m 279.76,389.92 c 1.43,-0.29 3.47,-0.45 5.42,-0.45 3.02,0 4.96,0.55 6.32,1.78 1.1,0.97 1.72,2.46 1.72,4.15 0,2.89 -1.82,4.8 -4.12,5.58 v 0.1 c 1.69,0.58 2.69,2.14 3.21,4.41 0.71,3.05 1.23,5.16 1.69,6 h -2.92 c -0.36,-0.62 -0.84,-2.5 -1.46,-5.22 -0.65,-3.02 -1.82,-4.15 -4.38,-4.25 h -2.66 v 9.47 h -2.82 z m 2.82,9.95 h 2.89 c 3.02,0 4.93,-1.65 4.93,-4.15 0,-2.82 -2.04,-4.05 -5.03,-4.09 -1.36,0 -2.33,0.13 -2.79,0.26 z"
   id="path363" />
		<path
   class="st3"
   d="m 301.71,404.6 -2.27,6.87 h -2.92 l 7.43,-21.85 h 3.4 l 7.46,21.85 h -3.02 l -2.33,-6.87 z m 7.17,-2.2 -2.14,-6.29 c -0.49,-1.43 -0.81,-2.72 -1.13,-3.99 h -0.06 c -0.32,1.3 -0.68,2.63 -1.1,3.96 l -2.14,6.32 z"
   id="path364" />
		<path
   class="st3"
   d="m 333.62,410.76 c -1.04,0.52 -3.08,1.04 -5.74,1.04 l -0.75,1.3 c 1.2,0.23 2.27,1.1 2.27,2.43 0,1.88 -1.65,2.63 -3.34,2.63 -0.84,0 -1.75,-0.23 -2.3,-0.55 l 0.45,-1.46 c 0.49,0.26 1.1,0.42 1.82,0.42 0.75,0 1.36,-0.29 1.36,-0.97 0,-0.88 -1,-1.23 -2.53,-1.39 l 1.36,-2.5 c -5.35,-0.65 -9.18,-4.44 -9.18,-10.96 0,-6.84 4.64,-11.48 11.41,-11.48 2.72,0 4.44,0.58 5.19,0.97 l -0.68,2.3 c -1.07,-0.52 -2.59,-0.91 -4.41,-0.91 -5.12,0 -8.53,3.27 -8.53,9.01 0,5.35 3.08,8.79 8.4,8.79 1.72,0 3.47,-0.36 4.6,-0.91 z"
   id="path365" />
		<path
   class="st3"
   d="m 341.63,404.6 -2.27,6.87 h -2.92 l 7.43,-21.85 h 3.4 l 7.46,21.85 h -3.02 l -2.33,-6.87 z m 0,-16.31 c -0.03,-1.98 0.81,-3.31 2.21,-3.31 0.71,0 1.26,0.29 1.95,0.65 0.52,0.29 1.04,0.58 1.52,0.58 0.52,0 0.81,-0.23 0.88,-1.26 h 1.52 c 0.03,2.04 -0.68,3.15 -2.2,3.15 -0.68,0 -1.26,-0.26 -1.98,-0.62 -0.62,-0.32 -1.04,-0.62 -1.52,-0.62 -0.52,0 -0.75,0.55 -0.84,1.43 z m 7.17,14.11 -2.14,-6.29 c -0.49,-1.43 -0.81,-2.72 -1.13,-3.99 h -0.06 c -0.32,1.3 -0.68,2.63 -1.1,3.96 l -2.14,6.32 z"
   id="path366" />
		<path
   class="st3"
   d="m 376.95,400.32 c 0,7.52 -4.57,11.51 -10.15,11.51 -5.77,0 -9.82,-4.47 -9.82,-11.09 0,-6.94 4.31,-11.48 10.15,-11.48 5.96,0.01 9.82,4.58 9.82,11.06 z m -16.96,0.36 c 0,4.67 2.53,8.85 6.97,8.85 4.47,0 7,-4.12 7,-9.08 0,-4.35 -2.27,-8.88 -6.97,-8.88 -4.67,0 -7,4.31 -7,9.11 z"
   id="path367" />
		<path
   class="st3"
   d="m 389.11,389.92 c 1.72,-0.26 3.76,-0.45 6,-0.45 4.05,0 6.94,0.94 8.85,2.72 1.95,1.78 3.08,4.31 3.08,7.85 0,3.57 -1.1,6.48 -3.15,8.5 -2.04,2.04 -5.42,3.15 -9.66,3.15 -2.01,0 -3.7,-0.1 -5.12,-0.26 z m 2.82,19.32 c 0.71,0.13 1.75,0.16 2.85,0.16 6.03,0 9.31,-3.37 9.31,-9.27 0.03,-5.16 -2.89,-8.43 -8.85,-8.43 -1.46,0 -2.56,0.13 -3.31,0.29 z"
   id="path368" />
		<path
   class="st3"
   d="m 422.83,401.23 h -8.5 v 7.88 h 9.47 v 2.37 h -12.29 v -21.85 h 11.8 V 392 h -8.98 v 6.91 h 8.5 z"
   id="path369" />
		<path
   class="st3"
   d="m 438.79,389.62 v 12.94 c 0,4.9 2.17,6.97 5.09,6.97 3.24,0 5.32,-2.14 5.32,-6.97 v -12.94 h 2.85 v 12.74 c 0,6.71 -3.53,9.47 -8.27,9.47 -4.47,0 -7.85,-2.56 -7.85,-9.34 v -12.87 z"
   id="path370" />
		<path
   class="st3"
   d="m 476.18,401.88 c -0.16,-3.05 -0.36,-6.71 -0.32,-9.44 h -0.1 c -0.75,2.56 -1.65,5.29 -2.76,8.3 l -3.86,10.6 H 467 l -3.53,-10.41 c -1.04,-3.08 -1.91,-5.9 -2.53,-8.5 h -0.06 c -0.06,2.72 -0.23,6.39 -0.42,9.66 l -0.58,9.37 h -2.69 l 1.52,-21.85 h 3.6 l 3.73,10.57 c 0.91,2.69 1.65,5.09 2.21,7.36 h 0.1 c 0.55,-2.21 1.33,-4.6 2.3,-7.36 l 3.89,-10.57 h 3.6 l 1.36,21.85 h -2.76 z"
   id="path371" />
		<path
   class="st3"
   d="m 492.33,389.62 h 11.77 v 2.37 h -8.95 v 7.26 h 8.27 v 2.33 h -8.27 v 9.89 h -2.82 z"
   id="path372" />
		<path
   class="st3"
   d="m 511.75,389.62 v 12.94 c 0,4.9 2.17,6.97 5.09,6.97 3.24,0 5.32,-2.14 5.32,-6.97 v -12.94 h 2.85 v 12.74 c 0,6.71 -3.53,9.47 -8.27,9.47 -4.47,0 -7.85,-2.56 -7.85,-9.34 v -12.87 z"
   id="path373" />
		<path
   class="st3"
   d="m 534.87,392.02 h -6.65 v -2.4 h 16.18 v 2.4 h -6.68 v 19.46 h -2.85 z"
   id="path374" />
		<path
   class="st3"
   d="m 550.47,389.62 v 12.94 c 0,4.9 2.17,6.97 5.09,6.97 3.24,0 5.32,-2.14 5.32,-6.97 v -12.94 h 2.85 v 12.74 c 0,6.71 -3.53,9.47 -8.27,9.47 -4.47,0 -7.85,-2.56 -7.85,-9.34 v -12.87 z"
   id="path375" />
		<path
   class="st3"
   d="m 569.44,389.92 c 1.43,-0.29 3.47,-0.45 5.42,-0.45 3.02,0 4.96,0.55 6.32,1.78 1.1,0.97 1.72,2.46 1.72,4.15 0,2.89 -1.82,4.8 -4.12,5.58 v 0.1 c 1.69,0.58 2.69,2.14 3.21,4.41 0.71,3.05 1.23,5.16 1.69,6 h -2.92 c -0.36,-0.62 -0.84,-2.5 -1.46,-5.22 -0.65,-3.02 -1.82,-4.15 -4.38,-4.25 h -2.66 v 9.47 h -2.82 z m 2.82,9.95 h 2.89 c 3.02,0 4.93,-1.65 4.93,-4.15 0,-2.82 -2.04,-4.05 -5.03,-4.09 -1.36,0 -2.33,0.13 -2.79,0.26 z"
   id="path376" />
		<path
   class="st3"
   d="m 606.47,400.32 c 0,7.52 -4.57,11.51 -10.15,11.51 -5.77,0 -9.82,-4.47 -9.82,-11.09 0,-6.94 4.31,-11.48 10.15,-11.48 5.97,0.01 9.82,4.58 9.82,11.06 z m -16.95,0.36 c 0,4.67 2.53,8.85 6.97,8.85 4.47,0 7,-4.12 7,-9.08 0,-4.35 -2.27,-8.88 -6.97,-8.88 -4.67,0 -7,4.31 -7,9.11 z"
   id="path377" />
		<path
   class="st3"
   d="m 99.81,456.17 c -1.04,0.52 -3.11,1.04 -5.77,1.04 -6.16,0 -10.8,-3.89 -10.8,-11.06 0,-6.84 4.64,-11.48 11.41,-11.48 2.72,0 4.44,0.58 5.19,0.97 l -0.68,2.3 c -1.07,-0.52 -2.59,-0.91 -4.41,-0.91 -5.12,0 -8.53,3.27 -8.53,9.01 0,5.35 3.08,8.79 8.4,8.79 1.72,0 3.47,-0.36 4.6,-0.91 z"
   id="path378" />
		<path
   class="st3"
   d="m 122.15,445.72 c 0,7.52 -4.57,11.51 -10.15,11.51 -5.77,0 -9.82,-4.47 -9.82,-11.09 0,-6.94 4.31,-11.48 10.15,-11.48 5.96,0.01 9.82,4.58 9.82,11.06 z m -16.96,0.36 c 0,4.67 2.53,8.85 6.97,8.85 4.47,0 7,-4.12 7,-9.08 0,-4.35 -2.27,-8.88 -6.97,-8.88 -4.66,0 -7,4.31 -7,9.11 z"
   id="path379" />
		<path
   class="st3"
   d="m 145.05,447.28 c -0.16,-3.05 -0.36,-6.71 -0.32,-9.44 h -0.1 c -0.75,2.56 -1.65,5.29 -2.76,8.3 l -3.86,10.6 h -2.14 l -3.53,-10.41 c -1.04,-3.08 -1.91,-5.9 -2.53,-8.5 h -0.06 c -0.06,2.72 -0.23,6.39 -0.42,9.66 l -0.58,9.37 h -2.69 l 1.52,-21.85 h 3.6 l 3.73,10.57 c 0.91,2.69 1.65,5.09 2.21,7.36 h 0.1 c 0.55,-2.21 1.33,-4.6 2.3,-7.36 l 3.89,-10.57 h 3.6 l 1.36,21.85 h -2.76 z"
   id="path380" />
		<path
   class="st3"
   d="m 156.33,435.02 v 12.94 c 0,4.9 2.17,6.97 5.09,6.97 3.24,0 5.32,-2.14 5.32,-6.97 v -12.94 h 2.85 v 12.74 c 0,6.71 -3.53,9.47 -8.27,9.47 -4.47,0 -7.85,-2.56 -7.85,-9.34 v -12.87 z"
   id="path381" />
		<path
   class="st3"
   d="m 193.72,447.28 c -0.16,-3.05 -0.36,-6.71 -0.32,-9.44 h -0.1 c -0.75,2.56 -1.65,5.29 -2.76,8.3 l -3.86,10.6 h -2.14 l -3.53,-10.41 c -1.04,-3.08 -1.91,-5.9 -2.53,-8.5 h -0.06 c -0.06,2.72 -0.23,6.39 -0.42,9.66 l -0.58,9.37 h -2.69 l 1.52,-21.85 h 3.6 l 3.73,10.57 c 0.91,2.69 1.65,5.09 2.21,7.36 h 0.1 c 0.55,-2.21 1.33,-4.6 2.3,-7.36 l 3.89,-10.57 h 3.6 l 1.36,21.85 h -2.76 z"
   id="path382" />
	</g>
</g>


</svg>
